<svg version="1.1" id="Layer_1" xmlns="http://www.w3.org/2000/svg" xmlns:xlink="http://www.w3.org/1999/xlink" x="0px" y="0px"
	 width="100%" viewBox="0 0 6250 2083" enable-background="new 0 0 6250 2083" xml:space="preserve">
<path fill="#000000" opacity="1.000000" stroke="none" 
	d="
M4446.000000,2086.000000 
	C2964.000000,2086.000000 1483.000000,2086.000000 2.000000,2086.000000 
	C2.000000,1391.333374 2.000000,696.666687 2.000000,2.000000 
	C2085.333252,2.000000 4168.666504,2.000000 6252.000000,2.000000 
	C6252.000000,696.666687 6252.000000,1391.333374 6252.000000,2086.000000 
	C5650.333496,2086.000000 5048.666504,2086.000000 4446.000000,2086.000000 
M954.957764,730.552673 
	C954.564636,731.630859 954.171448,732.708984 952.898438,734.536011 
	C952.510742,735.608154 952.122986,736.680237 950.871826,738.519226 
	C950.488464,739.593628 950.105164,740.668030 948.596130,742.536926 
	C946.421204,747.604980 944.246277,752.672974 941.049072,758.702209 
	C932.828308,779.210022 924.607544,799.717834 915.911499,821.606140 
	C908.697571,847.098328 900.894775,872.443726 894.488159,898.137268 
	C890.576050,913.826477 888.811279,930.051086 885.700562,947.502197 
	C885.242065,951.017883 884.783569,954.533569 883.762573,958.885864 
	C883.771729,960.557068 883.780884,962.228271 883.310364,965.289246 
	C882.981323,968.209900 882.652344,971.130615 881.783752,974.711853 
	C881.874939,975.803650 881.966125,976.895386 881.760315,979.332886 
	C881.769958,980.249390 881.779602,981.165894 881.124390,983.156006 
	C881.215881,983.966370 881.307312,984.776672 880.880676,987.001587 
	C880.683228,990.016602 880.485779,993.031555 879.741150,997.076538 
	C879.818787,999.385742 879.896423,1001.694885 879.686584,1005.688354 
	C879.181824,1018.579590 878.677063,1031.470825 877.340088,1045.078125 
	C876.306641,1046.061035 875.273193,1047.043945 872.961853,1048.527588 
	C871.087524,1049.912231 869.195312,1051.273438 867.341553,1052.685181 
	C839.852661,1073.617432 815.186768,1097.289429 796.439941,1126.579346 
	C780.916504,1150.833374 771.221558,1177.112793 769.841614,1206.123291 
	C767.973572,1245.396362 780.922668,1280.047607 803.094604,1311.729004 
	C822.379700,1339.285278 846.415283,1362.269043 872.802124,1382.856567 
	C915.529785,1416.193359 962.475769,1442.563721 1011.277954,1465.765015 
	C1016.561646,1468.276978 1020.706238,1471.466309 1024.285278,1476.109619 
	C1045.065308,1503.068481 1067.799072,1528.297607 1092.354614,1551.881104 
	C1169.739380,1626.201416 1259.510132,1679.915649 1361.429565,1713.278931 
	C1426.409912,1734.550171 1493.264526,1745.427856 1561.512451,1747.441895 
	C1600.865356,1748.603149 1640.060913,1745.822754 1679.084351,1740.364746 
	C1745.434692,1731.084839 1808.977783,1712.273438 1869.939453,1684.669922 
	C1950.937866,1647.993652 2022.554810,1597.787231 2084.462402,1534.004272 
	C2184.347168,1431.093140 2247.689209,1309.087891 2274.227539,1168.075562 
	C2276.229248,1157.438721 2277.991943,1146.756958 2280.232666,1134.009033 
	C2286.485840,1141.700806 2291.451660,1147.809326 2296.436035,1154.894653 
	C2296.740234,1155.539307 2297.244629,1155.915527 2297.992188,1156.031860 
	C2297.992188,1156.031860 2297.980469,1156.075195 2298.163574,1157.499390 
	C2306.957031,1171.248047 2312.888672,1186.127075 2315.835938,1202.188843 
	C2315.838379,1202.203125 2316.104248,1202.169067 2315.825195,1202.191528 
	C2315.349365,1184.037842 2310.169678,1167.322998 2299.481201,1150.951538 
	C2294.435059,1143.927490 2289.168457,1137.046631 2284.462402,1129.801636 
	C2282.817871,1127.270386 2282.130127,1123.889038 2281.785400,1120.808716 
	C2281.458008,1117.883423 2282.074463,1114.835571 2282.405029,1111.855957 
	C2288.347656,1058.288940 2287.589844,1004.831299 2280.433838,951.401123 
	C2270.349365,876.103577 2247.405518,804.926575 2212.753174,737.429565 
	C2174.196777,662.327881 2123.640625,596.186035 2062.907227,537.767273 
	C1984.519897,462.367737 1895.315796,403.429443 1794.049561,363.337830 
	C1769.995850,353.814850 1745.202637,346.159271 1719.774170,337.305115 
	C1715.392944,312.277893 1703.691528,290.002197 1683.050903,272.933472 
	C1662.409912,255.864471 1638.537354,247.900421 1611.848877,249.039459 
	C1561.672485,251.180939 1522.704834,287.584045 1514.163574,332.788635 
	C1504.885864,381.891541 1529.432129,428.755341 1574.072266,448.468170 
	C1595.817261,458.070648 1618.259399,460.143219 1641.399414,454.383514 
	C1672.647095,446.605682 1694.967041,427.467010 1710.514282,399.206116 
	C1719.947510,401.917114 1728.909302,404.278870 1737.738037,407.062958 
	C1826.711182,435.120544 1906.861572,479.652924 1979.613525,537.658386 
	C2064.677490,605.480103 2133.314941,686.850891 2180.925293,785.155884 
	C2225.468994,877.128845 2245.228516,974.354065 2241.586670,1076.405029 
	C2241.472168,1079.611206 2241.115723,1082.808594 2240.782715,1087.188477 
	C2237.933350,1085.428345 2236.211670,1084.556885 2234.704102,1083.404907 
	C2207.910400,1062.931030 2179.111572,1045.654785 2149.366211,1029.898193 
	C2081.884277,994.151978 2011.041504,966.432190 1938.749756,942.272888 
	C1931.964844,940.005493 1928.670166,936.634949 1926.524902,929.928650 
	C1880.077026,784.732666 1749.599365,682.194458 1598.019165,672.451599 
	C1512.805176,666.974426 1434.224243,687.906372 1363.499390,736.092346 
	C1308.697510,773.429626 1266.503296,821.935120 1236.997925,882.964783 
	C1234.383789,888.921265 1231.769653,894.877747 1229.155640,900.834290 
	C1229.302490,900.912720 1229.449341,900.991211 1229.596313,901.069641 
	C1233.024048,896.029785 1236.451904,890.989929 1240.866699,885.055237 
	C1266.058594,855.257751 1297.930786,838.923828 1337.107422,837.371765 
	C1413.149292,834.359314 1480.727783,899.847107 1469.377319,984.645325 
	C1459.904785,1055.412476 1394.772705,1103.706909 1323.720703,1094.411011 
	C1253.937622,1085.281250 1202.854980,1019.399780 1213.617432,948.309998 
	C1214.694580,941.195618 1216.244141,934.152710 1217.610107,926.887939 
	C1216.330933,926.724976 1215.349609,926.400879 1214.419189,926.509766 
	C1139.703247,935.254639 1067.276733,953.074158 997.504272,981.364807 
	C959.202942,996.894897 922.241272,1015.007385 886.184387,1038.322510 
	C885.452393,1033.549194 884.720398,1028.775879 884.278992,1022.183472 
	C884.405762,1016.002808 884.532532,1009.822083 885.293152,1002.675476 
	C885.102051,1001.957825 884.910889,1001.240173 885.219238,999.033752 
	C885.384705,995.341125 885.550110,991.648560 886.256042,987.074585 
	C886.176147,985.382202 886.096191,983.689880 886.331726,980.428223 
	C886.773865,975.605713 887.216003,970.783203 888.219543,965.111694 
	C888.182617,963.424500 888.145691,961.737244 888.487061,958.574768 
	C888.893982,955.028870 889.300903,951.482910 890.340942,946.526672 
	C892.645569,932.761780 894.234070,918.829529 897.404663,905.267090 
	C903.898926,877.487488 911.242249,849.906372 919.228577,821.219788 
	C926.979492,800.772461 934.730408,780.325195 943.437378,758.982544 
	C945.679260,753.353455 947.921143,747.724426 951.092468,741.385193 
	C951.448730,740.288940 951.804993,739.192688 953.088257,737.383667 
	C953.442261,736.287109 953.796204,735.190552 955.072998,733.382507 
	C955.432617,732.292358 955.792236,731.202209 956.672607,729.807556 
	C956.409973,729.820190 956.147400,729.832764 954.957764,730.552673 
M2415.505615,940.430664 
	C2388.874512,987.287659 2384.337646,1036.712036 2400.107422,1087.744507 
	C2414.318115,1133.731567 2451.740479,1172.290283 2512.262207,1177.021606 
	C2520.038330,1177.629639 2525.983643,1179.941895 2532.184814,1184.257568 
	C2562.768311,1205.542847 2593.247559,1227.020020 2624.524902,1247.252319 
	C2647.586914,1262.170288 2672.581299,1272.883667 2700.830322,1273.961548 
	C2707.519531,1274.216797 2713.484863,1273.268433 2718.679199,1269.316284 
	C2730.291992,1260.480103 2741.698486,1251.372803 2753.247559,1242.330078 
	C2752.497314,1239.545410 2752.102051,1237.602539 2751.431152,1235.760132 
	C2750.988525,1234.543579 2750.149170,1233.471191 2749.395996,1232.177124 
	C2748.032471,1232.177124 2746.652588,1231.910156 2745.413818,1232.216064 
	C2709.854736,1240.998291 2676.108643,1235.068726 2643.536621,1219.696045 
	C2617.289551,1207.308350 2592.634033,1192.179443 2568.650635,1175.916260 
	C2567.495850,1175.132935 2566.740234,1173.761230 2565.393311,1172.190674 
	C2567.389648,1171.308594 2568.531006,1170.666260 2569.753662,1170.283569 
	C2605.161621,1159.203613 2632.983398,1137.831787 2653.044189,1106.916748 
	C2680.528809,1064.560669 2687.342285,1018.213684 2676.775635,969.194702 
	C2670.735840,941.176392 2658.194092,916.381958 2636.458984,897.260254 
	C2599.108398,864.400269 2555.455322,857.478455 2508.466064,869.256592 
	C2468.098145,879.374939 2437.807373,903.771240 2415.505615,940.430664 
M4190.921875,968.049133 
	C4168.852539,950.537109 4145.228516,946.094971 4119.542969,959.693909 
	C4113.081543,963.114746 4106.624023,966.581055 4100.414551,970.429443 
	C4091.141113,976.176636 4082.089355,982.281067 4072.617432,988.445679 
	C4071.581299,986.651550 4070.616943,985.304688 4069.973633,983.818726 
	C4057.092285,954.068848 4013.292725,944.571289 3992.248291,957.493042 
	C3978.947021,965.660583 3965.290771,973.248840 3951.825928,981.151855 
	C3948.807373,982.923462 3945.923584,984.924255 3942.977783,986.819519 
	C3942.353271,986.411133 3941.728760,986.002686 3941.104248,985.594299 
	C3942.294189,977.480591 3943.216309,969.316040 3944.743408,961.266296 
	C3946.556396,951.710083 3945.849854,950.887939 3935.987793,953.030457 
	C3922.021973,956.064514 3908.054688,959.091187 3894.075684,962.063416 
	C3888.314697,963.288269 3882.521973,964.363708 3876.644775,965.526672 
	C3876.345703,970.978027 3876.059082,975.602661 3875.878906,980.231445 
	C3875.856201,980.815308 3876.390137,981.420898 3877.070557,982.889954 
	C3879.876465,983.019226 3883.131104,983.124756 3886.379883,983.327026 
	C3896.790771,983.974976 3902.096924,988.466553 3904.097900,998.830750 
	C3904.973877,1003.368958 3905.563477,1008.041077 3905.577881,1012.654541 
	C3905.694336,1049.981567 3905.670898,1087.309082 3905.595215,1124.636353 
	C3905.588623,1127.919556 3904.800293,1131.193726 3904.558594,1134.485474 
	C3903.798340,1144.839722 3897.141357,1149.503540 3888.009521,1151.822754 
	C3885.532715,1152.451782 3883.040283,1153.017822 3880.598633,1153.602295 
	C3879.739258,1160.170898 3878.983643,1165.945312 3878.217773,1171.798828 
	C3893.691406,1171.798828 3908.306396,1171.648193 3922.916748,1171.840698 
	C3937.794678,1172.036621 3952.667969,1172.570435 3968.092529,1172.970581 
	C3969.593018,1165.614990 3971.007080,1158.682617 3972.523438,1151.248657 
	C3965.169434,1151.248657 3959.187500,1151.464722 3953.227539,1151.194946 
	C3945.395508,1150.840698 3941.426758,1148.057739 3939.745605,1140.378174 
	C3938.341064,1133.962769 3937.774170,1127.222168 3937.886475,1120.643555 
	C3938.198242,1102.344116 3939.023926,1084.052612 3939.709473,1065.760376 
	C3940.332764,1049.129395 3940.993652,1032.499512 3941.741943,1015.873779 
	C3941.901611,1012.328674 3941.555908,1008.661926 3945.345459,1006.155457 
	C3960.414795,996.188232 3975.946045,987.010376 3994.146729,984.537354 
	C4011.894043,982.125854 4029.264648,988.865967 4035.998779,1010.245605 
	C4039.329102,1020.818054 4040.070557,1031.737549 4039.500488,1042.784180 
	C4039.003662,1052.414917 4038.532227,1062.052490 4038.348877,1071.692627 
	C4038.000732,1090.012695 4037.864014,1108.337036 4037.644043,1126.659546 
	C4037.473877,1140.849976 4030.992432,1150.642212 4017.536621,1155.615845 
	C4015.120361,1156.509033 4012.754883,1157.540039 4010.182617,1158.581543 
	C4010.182617,1164.982544 4010.182617,1170.865967 4010.182617,1176.416626 
	C4025.484619,1174.846313 4040.265625,1172.592529 4055.111572,1172.013550 
	C4069.920166,1171.436035 4084.794434,1172.536865 4100.268066,1172.917236 
	C4101.501953,1165.471680 4102.646973,1158.559204 4103.856445,1151.259155 
	C4097.483887,1151.259155 4092.511719,1151.348999 4087.543701,1151.239502 
	C4078.381592,1151.037598 4073.984131,1148.046387 4071.856689,1139.103027 
	C4070.491943,1133.366333 4070.065674,1127.272827 4070.151367,1121.352783 
	C4070.319824,1109.714600 4071.212402,1098.088623 4071.672852,1086.452393 
	C4072.620605,1062.508423 4073.442627,1038.559204 4074.417725,1014.616333 
	C4074.565674,1010.984741 4075.128174,1007.567261 4078.786865,1005.176147 
	C4093.073730,995.839294 4107.774902,987.497681 4124.926270,984.736572 
	C4142.365723,981.929016 4161.472656,988.250061 4168.251953,1010.947205 
	C4171.524902,1021.906006 4172.094238,1033.151367 4171.476562,1044.518066 
	C4170.971191,1053.818237 4170.522461,1063.127808 4170.347656,1072.438843 
	C4170.003906,1090.758911 4169.938965,1109.084106 4169.621582,1127.404907 
	C4169.357422,1142.685303 4164.378906,1149.281006 4150.101562,1153.677979 
	C4148.293945,1154.234497 4146.429199,1154.604736 4144.501465,1155.083618 
	C4143.659180,1161.489502 4142.895508,1167.298950 4142.152344,1172.951172 
	C4172.281738,1172.951172 4201.768555,1172.951172 4232.131836,1172.951172 
	C4233.568848,1166.013550 4235.019531,1159.006714 4236.624023,1151.259521 
	C4230.633789,1151.259521 4225.704102,1151.298828 4220.775391,1151.251709 
	C4208.549805,1151.135132 4203.809570,1147.022827 4202.435059,1135.072876 
	C4202.017090,1131.444214 4201.917969,1127.744141 4202.061523,1124.092041 
	C4202.621582,1109.803223 4203.208496,1095.513184 4204.023926,1081.237183 
	C4205.371094,1057.669556 4207.251953,1034.126953 4208.233398,1010.545837 
	C4208.898438,994.563049 4203.423828,980.504822 4190.921875,968.049133 
M4646.972168,1281.308350 
	C4669.218262,1280.712769 4691.464844,1280.117188 4714.109375,1279.510986 
	C4715.325195,1273.794922 4716.541992,1268.075195 4717.991699,1261.261963 
	C4711.678223,1261.261963 4706.416016,1261.329834 4701.155273,1261.249023 
	C4686.663086,1261.026245 4680.964844,1256.392090 4679.847168,1241.933594 
	C4678.721680,1227.368164 4678.731445,1212.711182 4678.384277,1198.090820 
	C4678.212402,1190.847534 4678.354004,1183.596680 4678.354004,1175.719482 
	C4684.533691,1176.107544 4690.119141,1176.320679 4695.676758,1176.829956 
	C4727.397949,1179.737915 4756.974609,1173.786255 4781.915527,1153.176392 
	C4822.815430,1119.378174 4838.235840,1075.473755 4827.073242,1023.922241 
	C4818.992676,986.603271 4795.149414,962.660889 4756.833008,954.683960 
	C4744.329590,952.080933 4732.436523,952.834351 4721.367188,960.050171 
	C4711.894043,966.224915 4702.211914,972.077759 4692.614258,978.060791 
	C4689.915039,979.743774 4687.188477,981.382996 4683.777832,983.467896 
	C4680.295410,972.248108 4688.406250,962.296875 4685.246094,951.418701 
	C4662.319336,956.248596 4640.346191,960.877686 4617.835449,965.620056 
	C4617.322754,971.173218 4616.823242,976.584412 4616.199707,983.339050 
	C4621.153320,983.339050 4624.746094,983.069702 4628.284180,983.393677 
	C4636.303223,984.127930 4642.409668,987.779175 4644.027832,996.178528 
	C4645.149902,1002.003296 4645.897461,1008.003235 4645.898926,1013.925171 
	C4645.915527,1082.567505 4645.808594,1151.210083 4645.583496,1219.852051 
	C4645.553711,1228.815796 4644.928223,1237.798706 4644.134277,1246.733154 
	C4643.246094,1256.730103 4638.833008,1261.331055 4628.805176,1263.779175 
	C4626.019531,1264.459229 4623.258789,1265.243652 4620.707031,1265.921631 
	C4620.064941,1272.293945 4619.516113,1277.744751 4618.900879,1283.851196 
	C4627.975586,1282.971069 4636.529297,1282.141602 4646.972168,1281.308350 
M4517.645508,898.956238 
	C4525.837402,905.304382 4529.774414,913.998108 4530.179688,924.024292 
	C4530.580566,933.957642 4530.133789,943.934937 4529.787598,953.883545 
	C4529.658203,957.596680 4529.826172,961.025635 4534.428711,960.846313 
	C4539.968262,960.630615 4545.475586,959.606384 4550.168457,959.033386 
	C4553.826172,931.210144 4557.353516,904.380920 4560.995605,876.680359 
	C4558.022949,875.635315 4555.037598,874.279724 4551.906250,873.540527 
	C4541.558105,871.097900 4531.245605,868.310608 4520.760254,866.683777 
	C4494.176758,862.559326 4467.735840,862.376709 4442.022949,871.979492 
	C4416.754395,881.416321 4396.216797,896.526978 4385.132324,921.866089 
	C4373.039551,949.510803 4376.571289,976.942505 4398.871094,997.735962 
	C4407.797852,1006.059875 4417.864746,1013.490540 4428.362793,1019.729065 
	C4447.779785,1031.267578 4467.979492,1041.478882 4487.689453,1052.535889 
	C4499.345703,1059.074951 4510.126465,1066.850220 4518.633789,1077.409302 
	C4526.904785,1087.674683 4529.230469,1099.141846 4526.741699,1112.028687 
	C4522.896484,1131.944214 4509.797363,1143.306396 4491.754395,1149.342529 
	C4471.700684,1156.051270 4451.144531,1155.504761 4430.760742,1150.308105 
	C4418.916992,1147.288696 4410.464844,1139.688599 4407.099609,1128.119873 
	C4404.256836,1118.347168 4403.094727,1108.033081 4401.790039,1097.881470 
	C4400.705078,1089.436890 4400.493652,1080.879883 4399.842285,1071.625732 
	C4392.732422,1072.496826 4386.333008,1073.280884 4379.730469,1074.089844 
	C4379.221191,1082.965332 4378.890137,1090.914795 4378.283691,1098.843018 
	C4377.094238,1114.397339 4376.088867,1129.977051 4374.374023,1145.476074 
	C4372.794922,1159.737671 4373.226074,1161.004639 4386.580566,1166.109741 
	C4410.582520,1175.285522 4435.535156,1178.611084 4461.020508,1177.177246 
	C4482.480957,1175.969849 4503.025391,1170.701172 4521.869141,1159.891113 
	C4538.148926,1150.551392 4551.606445,1138.188110 4559.302246,1120.907959 
	C4573.874023,1088.186279 4570.438965,1059.531860 4541.542480,1035.818848 
	C4531.337402,1027.444824 4519.886230,1020.412476 4508.399414,1013.820984 
	C4492.268066,1004.563965 4475.502441,996.420776 4459.142578,987.552856 
	C4447.092773,981.021362 4435.785645,973.379456 4426.763672,962.850952 
	C4420.834473,955.931885 4416.333984,948.403931 4415.645508,938.894836 
	C4414.022461,916.493652 4427.386230,902.698059 4443.722656,896.268799 
	C4467.955078,886.731873 4492.416992,887.433472 4517.645508,898.956238 
M3263.021973,951.991150 
	C3241.658203,956.553589 3220.294434,961.116089 3198.358154,965.800781 
	C3198.358154,971.543640 3198.358154,976.981018 3198.358154,982.881226 
	C3201.970215,983.048462 3204.917480,983.148804 3207.859863,983.327637 
	C3218.792725,983.991882 3224.363770,988.868225 3226.078125,999.469116 
	C3226.766846,1003.726624 3227.558594,1008.035645 3227.571777,1012.323425 
	C3227.687744,1049.968872 3228.076660,1087.622314 3227.427734,1125.256836 
	C3227.159424,1140.816406 3225.630371,1149.739746 3204.027588,1154.426147 
	C3203.460205,1154.549072 3203.001221,1155.172119 3202.058105,1155.893799 
	C3201.396240,1161.536621 3200.692383,1167.538574 3200.057617,1172.952637 
	C3230.586182,1172.952637 3260.037354,1172.952637 3289.927002,1172.952637 
	C3291.427734,1165.532837 3292.821533,1158.642090 3294.315918,1151.253296 
	C3287.192383,1151.253296 3281.544189,1151.393188 3275.905762,1151.220703 
	C3267.273438,1150.956665 3262.957031,1147.683228 3260.963623,1139.424927 
	C3260.037598,1135.588867 3259.633789,1131.503784 3259.759766,1127.556030 
	C3260.978760,1089.324341 3262.306152,1051.095459 3263.833740,1012.875061 
	C3263.924072,1010.617371 3265.432861,1007.612549 3267.250000,1006.354431 
	C3282.096924,996.075317 3297.737793,987.123291 3315.932373,984.553162 
	C3334.312744,981.956787 3351.245850,989.830017 3357.815186,1010.270447 
	C3359.121582,1014.335815 3360.066895,1018.680420 3360.201172,1022.927185 
	C3360.536865,1033.545776 3360.378906,1044.182495 3360.297363,1054.811035 
	C3360.118652,1078.123657 3360.152100,1101.443359 3359.541260,1124.745483 
	C3359.123291,1140.694580 3354.850830,1150.342041 3337.306641,1156.143066 
	C3335.753906,1156.656616 3334.323242,1157.538818 3332.483398,1158.418213 
	C3332.091064,1164.556763 3331.699463,1170.683716 3331.253906,1177.651855 
	C3361.849365,1170.531128 3391.648926,1170.999268 3421.854004,1173.502808 
	C3423.277588,1165.459106 3424.504639,1158.526367 3425.791504,1151.255371 
	C3419.183350,1151.255371 3413.894043,1151.392700 3408.614746,1151.223511 
	C3400.451172,1150.961670 3396.267822,1148.155273 3394.003174,1140.287476 
	C3392.555908,1135.260010 3391.717041,1129.842163 3391.822998,1124.623901 
	C3392.119141,1110.004883 3392.821045,1095.383423 3393.789062,1080.791260 
	C3394.777832,1065.885986 3396.594482,1051.032227 3397.440430,1036.121460 
	C3398.061035,1025.178101 3398.726074,1014.071411 3397.590088,1003.224060 
	C3393.478760,963.968079 3351.360352,940.174622 3315.883057,957.298828 
	C3300.367432,964.787964 3285.861084,974.365845 3270.883545,982.972656 
	C3268.747559,984.200134 3266.537842,985.299622 3262.420898,987.492493 
	C3264.197998,976.678833 3265.509766,967.873291 3267.153809,959.130127 
	C3267.754150,955.936035 3268.348633,953.175415 3263.021973,951.991150 
M2793.876953,1139.861328 
	C2784.740967,1134.328491 2779.643066,1126.009888 2777.871826,1115.705078 
	C2776.864014,1109.840210 2776.046387,1103.836304 2776.133057,1097.909424 
	C2776.385010,1080.614868 2777.027344,1063.323364 2777.713135,1046.038452 
	C2778.846191,1017.483887 2781.223633,989.067688 2787.192139,961.032837 
	C2787.777832,958.282654 2786.449219,955.125000 2785.991699,952.039856 
	C2762.592041,956.949890 2740.550049,961.575073 2717.654053,966.379456 
	C2717.014893,971.707642 2716.362793,977.144287 2715.675537,982.875000 
	C2720.195801,982.576721 2723.724609,982.140808 2727.252441,982.151062 
	C2735.958496,982.176270 2739.919434,984.979797 2742.759766,993.347595 
	C2743.702148,996.123169 2744.255371,999.172180 2744.267578,1002.099182 
	C2744.343994,1020.057251 2744.250000,1038.016479 2744.144043,1055.974976 
	C2744.000732,1080.256226 2742.713623,1104.588745 2743.866455,1128.806519 
	C2745.659424,1166.473755 2787.105957,1189.719604 2820.589600,1171.954102 
	C2835.794678,1163.886597 2849.698242,1153.363159 2864.172363,1143.923584 
	C2867.077881,1142.028564 2869.894043,1139.995605 2872.909668,1137.917114 
	C2874.915527,1144.904785 2876.162842,1150.767334 2878.265625,1156.305054 
	C2886.133301,1177.022827 2918.215332,1182.889404 2929.476318,1171.716187 
	C2939.659180,1161.612549 2949.792969,1151.602539 2957.507080,1139.103516 
	C2955.356934,1136.547241 2953.289307,1134.089111 2951.451416,1131.903809 
	C2947.357422,1134.456787 2944.397461,1136.662354 2941.134033,1138.240601 
	C2937.587891,1139.955688 2933.861084,1141.543579 2930.036865,1142.396118 
	C2912.692627,1146.262329 2903.499023,1139.116577 2903.753418,1121.595093 
	C2904.193604,1091.313843 2904.931396,1061.035889 2905.714844,1030.760864 
	C2906.333496,1006.853882 2907.586182,982.991455 2913.022461,959.571533 
	C2913.798340,956.229370 2912.394287,953.972229 2910.386230,952.479675 
	C2885.947266,957.035034 2862.172363,961.466614 2837.682861,966.031311 
	C2837.185791,971.655640 2836.684326,977.329346 2836.133301,983.566040 
	C2840.552002,982.970703 2843.505859,982.216675 2846.454834,982.235229 
	C2861.865234,982.332336 2870.753418,987.432861 2870.310547,1004.342896 
	C2870.292969,1005.008728 2870.308838,1005.675537 2870.308838,1006.341858 
	C2870.308838,1040.991333 2870.308838,1075.640869 2870.308838,1110.290405 
	C2870.308838,1112.883667 2870.308838,1115.476929 2870.308838,1118.073730 
	C2860.549561,1124.491821 2851.633545,1130.932373 2842.175537,1136.442505 
	C2827.334473,1145.088379 2811.633545,1147.244263 2793.876953,1139.861328 
M3677.208740,1030.292358 
	C3680.113525,1007.262756 3683.097168,984.242493 3685.824463,961.191956 
	C3686.169434,958.277893 3685.170410,955.204895 3684.768555,952.001099 
	C3661.082520,956.995361 3638.762939,961.701538 3616.293457,966.439331 
	C3615.652588,972.180542 3615.079346,977.315063 3614.451172,982.941772 
	C3618.422363,982.622925 3621.628418,982.204224 3624.842041,982.137756 
	C3634.623291,981.935364 3639.529053,985.572510 3642.146729,995.078796 
	C3642.932129,997.931152 3643.598633,1000.941589 3643.569580,1003.872192 
	C3643.398926,1021.182556 3642.911377,1038.489624 3642.712891,1055.799805 
	C3642.430420,1080.431030 3641.073486,1105.130493 3642.402832,1129.680298 
	C3644.371338,1166.037109 3686.031494,1189.372192 3718.348145,1172.371460 
	C3734.450684,1163.900513 3749.133789,1152.731812 3764.460205,1142.785278 
	C3766.778564,1141.280762 3769.104248,1139.788086 3772.187256,1137.799438 
	C3772.889404,1141.207031 3773.067383,1143.523315 3773.853760,1145.610229 
	C3776.060059,1151.466309 3777.610352,1157.841919 3781.043457,1162.913208 
	C3792.028809,1179.140259 3817.662598,1181.927246 3831.605957,1168.320190 
	C3840.591309,1159.551392 3848.510254,1149.689575 3857.241943,1139.944092 
	C3854.064941,1136.618530 3851.844727,1134.294434 3850.016846,1132.380981 
	C3845.022705,1135.211548 3840.793457,1137.809204 3836.375244,1140.031494 
	C3834.030762,1141.210693 3831.405762,1141.951538 3828.826172,1142.525635 
	C3811.764404,1146.323364 3802.479248,1139.051636 3802.033691,1121.627197 
	C3801.974121,1119.296021 3801.975098,1116.960938 3802.028564,1114.629517 
	C3802.571777,1091.005493 3802.973633,1067.376953 3803.728271,1043.759521 
	C3804.619629,1015.870850 3805.500488,987.959045 3811.556885,960.552246 
	C3812.360107,956.917969 3811.745850,954.056335 3808.935547,952.503235 
	C3784.495605,957.062805 3760.680176,961.505798 3736.455811,966.025146 
	C3735.873779,971.574890 3735.303223,977.014282 3734.770264,982.095947 
	C3735.768066,982.683777 3736.062500,983.011597 3736.327637,982.989502 
	C3738.955078,982.770447 3741.574463,982.457703 3744.201660,982.238708 
	C3760.248047,980.900330 3768.797363,988.271118 3769.610840,1004.267883 
	C3769.813721,1008.256531 3769.643555,1012.264160 3769.643555,1016.263062 
	C3769.643799,1049.895752 3769.643799,1083.528442 3769.643799,1117.507935 
	C3760.965820,1123.326904 3752.446533,1129.129395 3743.834229,1134.790771 
	C3733.527344,1141.566284 3722.268066,1144.619873 3709.829102,1144.159302 
	C3693.610352,1143.558594 3682.477295,1136.064941 3677.992676,1120.475586 
	C3675.817383,1112.914062 3674.466064,1104.803223 3674.556152,1096.961914 
	C3674.804688,1075.341064 3676.010010,1053.731445 3677.208740,1030.292358 
M3128.154297,995.273560 
	C3125.556396,989.186890 3123.622803,982.700806 3120.244873,977.083191 
	C3106.229004,953.773804 3070.927002,947.455139 3049.949951,954.447388 
	C3027.828369,961.821106 3007.560547,973.211792 2986.702881,985.081360 
	C2988.911377,992.535889 2991.008057,999.614136 2993.362305,1007.561523 
	C2998.202637,1004.273010 3001.501709,1001.413635 3005.295166,999.572937 
	C3015.708740,994.520203 3025.931152,988.479858 3036.946533,985.378479 
	C3064.833496,977.527039 3087.187500,991.272644 3091.893555,1017.440979 
	C3094.097412,1029.696411 3092.855713,1041.752686 3091.710938,1053.930908 
	C3089.076904,1054.743408 3086.872803,1055.486694 3084.633789,1056.104126 
	C3058.050049,1063.434326 3031.477051,1070.803101 3004.867432,1078.037720 
	C2991.777100,1081.596802 2983.761230,1090.222168 2979.806396,1102.817749 
	C2968.841309,1137.738159 2996.554688,1174.473389 3034.276611,1175.385254 
	C3040.903320,1175.545532 3046.918457,1174.051147 3052.181641,1170.327148 
	C3060.045166,1164.762939 3067.728271,1158.921997 3075.240967,1152.890991 
	C3080.595215,1148.592773 3085.542969,1143.788330 3091.446289,1138.518677 
	C3092.608643,1143.448608 3093.476074,1147.230469 3094.393066,1151.000610 
	C3099.949463,1173.843018 3131.144287,1186.217773 3150.272217,1169.128052 
	C3160.060303,1160.383179 3168.482666,1150.741089 3175.760498,1139.437988 
	C3173.552979,1136.897217 3171.440674,1134.465698 3169.197510,1131.883667 
	C3160.286133,1138.692627 3151.097412,1143.694092 3139.821289,1143.267578 
	C3128.859619,1142.852905 3122.618652,1137.026123 3121.730469,1126.086304 
	C3121.569336,1124.099487 3121.553955,1122.077637 3121.712158,1120.091187 
	C3124.139893,1089.632812 3126.880127,1059.195801 3128.916504,1028.711670 
	C3129.619629,1018.187378 3128.594971,1007.547607 3128.154297,995.273560 
M4981.662109,1040.792725 
	C4981.662109,1045.056274 4981.662109,1049.319824 4981.662109,1053.511353 
	C4978.688965,1054.466919 4976.500000,1055.258301 4974.262695,1055.875854 
	C4947.680176,1063.213379 4921.119141,1070.633057 4894.491211,1077.801880 
	C4879.331543,1081.883179 4870.935059,1091.942871 4867.668945,1106.828613 
	C4862.171387,1131.887939 4875.816406,1164.623901 4909.471680,1173.422729 
	C4923.118652,1176.990723 4935.805176,1175.988037 4947.032227,1166.484253 
	C4956.420898,1158.536865 4965.895508,1150.690552 4975.387695,1142.866821 
	C4976.968750,1141.563843 4978.832031,1140.603394 4980.773926,1139.349731 
	C4981.833496,1143.865845 4982.835938,1147.366455 4983.462402,1150.932983 
	C4987.177734,1172.102051 5019.388672,1187.470703 5039.937012,1168.475586 
	C5049.313477,1159.807617 5057.481445,1150.415527 5064.704590,1139.289551 
	C5062.323730,1136.770630 5060.133301,1134.452759 5058.944336,1133.194824 
	C5050.704590,1136.650635 5043.708496,1140.764038 5036.165039,1142.507690 
	C5019.570801,1146.343018 5009.848633,1138.584961 5010.535156,1121.725220 
	C5011.398438,1100.496948 5013.630859,1079.327026 5015.112793,1058.120728 
	C5016.316895,1040.890503 5018.093750,1023.645630 5018.133301,1006.403870 
	C5018.174316,988.447449 5010.801758,973.206238 4995.422363,963.181030 
	C4977.461426,951.472839 4957.693359,948.495178 4937.225586,955.111145 
	C4926.842773,958.467285 4916.877441,963.296082 4907.037109,968.101074 
	C4896.377930,973.305481 4886.083984,979.257141 4875.471191,984.969116 
	C4877.757812,992.776123 4879.767090,999.635193 4882.085938,1007.551208 
	C4887.848145,1003.724609 4892.355469,1000.464783 4897.112793,997.622559 
	C4910.963867,989.346619 4925.416016,982.748108 4942.078125,983.340332 
	C4961.861816,984.043518 4975.707520,995.012878 4979.708496,1014.181274 
	C4981.385254,1022.216492 4981.141602,1030.652466 4981.662109,1040.792725 
M5618.605957,991.608765 
	C5623.068848,1000.935547 5621.652344,1010.855103 5620.302734,1021.215759 
	C5627.061035,1020.583069 5632.543945,1020.069702 5637.962402,1019.562439 
	C5639.284180,1009.476013 5640.334473,999.911377 5641.838379,990.418457 
	C5643.385742,980.646912 5645.374512,970.945251 5647.240723,960.832581 
	C5645.743652,959.924561 5644.476562,958.752075 5642.993164,958.318176 
	C5624.940918,953.038086 5606.419922,950.463623 5587.745117,952.259521 
	C5564.692383,954.476440 5543.617188,962.072449 5527.382812,979.735596 
	C5509.360840,999.343323 5501.497559,1034.055542 5531.744141,1057.972778 
	C5541.584473,1065.754272 5552.829590,1071.773315 5563.506348,1078.481201 
	C5577.847168,1087.491333 5592.992676,1095.414917 5606.458496,1105.573608 
	C5624.264648,1119.006104 5621.874023,1138.551758 5602.322266,1148.765259 
	C5591.681641,1154.323730 5580.346191,1155.562378 5568.480469,1154.308838 
	C5545.142578,1151.843140 5535.446289,1143.002319 5531.755371,1119.794189 
	C5530.628906,1112.714478 5530.092285,1105.540771 5529.245605,1098.057007 
	C5523.803223,1098.924561 5518.958496,1099.696777 5513.831055,1100.514038 
	C5511.756836,1121.252563 5509.695312,1141.676392 5507.683594,1162.105225 
	C5507.160156,1167.419434 5511.201172,1168.858765 5515.035156,1169.995239 
	C5540.267578,1177.474854 5565.845703,1180.610352 5591.713379,1173.909058 
	C5613.026367,1168.387939 5630.682617,1157.059937 5643.032227,1138.391968 
	C5654.891602,1120.465088 5659.034180,1092.641357 5633.113281,1072.679810 
	C5625.486328,1066.806396 5617.518555,1061.284912 5609.268555,1056.332031 
	C5597.589355,1049.319702 5585.270508,1043.362549 5573.676270,1036.221802 
	C5566.376465,1031.725952 5558.993652,1026.729492 5553.233887,1020.492737 
	C5538.456543,1004.491882 5542.809570,986.616943 5563.032227,978.473450 
	C5575.461426,973.468384 5588.372559,974.107788 5601.187500,977.171387 
	C5608.646484,978.954712 5614.566895,982.949890 5618.605957,991.608765 
M5334.536133,830.602173 
	C5336.500977,826.804016 5335.375488,823.604126 5332.805176,820.795227 
	C5309.344727,825.524292 5286.047852,830.220398 5262.517578,834.963562 
	C5262.102051,840.404968 5261.707031,845.569397 5261.277832,851.186035 
	C5264.416016,850.754761 5266.651367,850.313904 5268.906738,850.159729 
	C5281.291016,849.313049 5287.622070,854.176025 5289.539062,866.449402 
	C5290.253418,871.024841 5290.270996,875.739380 5290.275391,880.390808 
	C5290.322754,932.669189 5290.343262,984.947632 5290.289551,1037.225952 
	C5290.259277,1067.191040 5290.206543,1097.156982 5289.917480,1127.120239 
	C5289.747070,1144.805786 5282.864258,1152.141113 5267.166992,1154.379395 
	C5266.599121,1154.460449 5266.114746,1155.127930 5264.805664,1156.114258 
	C5264.295410,1161.484375 5263.723633,1167.506104 5263.206055,1172.957275 
	C5293.625488,1172.957275 5323.336426,1172.957275 5353.163574,1172.957275 
	C5354.602539,1165.232422 5355.845215,1158.561279 5357.208008,1151.245361 
	C5350.181641,1151.245361 5344.290527,1151.422485 5338.414551,1151.203003 
	C5330.061035,1150.890869 5325.441406,1147.091553 5324.000977,1138.907349 
	C5323.027832,1133.376953 5322.342773,1127.691406 5322.446289,1122.092041 
	C5323.415527,1069.543213 5324.684082,1017.000122 5325.662109,964.451599 
	C5326.484375,920.244995 5328.471680,876.126831 5334.536133,830.602173 
M5156.455566,962.128479 
	C5158.578613,951.630310 5157.625977,950.682800 5147.710449,953.062561 
	C5140.288574,954.843750 5132.832520,956.479614 5125.387207,958.161987 
	C5113.787109,960.782959 5102.184082,963.388794 5090.436523,966.033813 
	C5090.436523,972.026001 5090.436523,977.504089 5090.436523,983.438843 
	C5092.857422,983.278198 5094.483398,983.310974 5096.058594,983.043518 
	C5109.111328,980.826965 5116.000977,985.319153 5118.110352,997.974976 
	C5119.032227,1003.510498 5119.557129,1009.177124 5119.579102,1014.786926 
	C5119.711426,1048.418213 5119.751465,1082.050903 5119.557617,1115.681641 
	C5119.517578,1122.623413 5118.668945,1129.605347 5117.637207,1136.485352 
	C5116.405762,1144.700928 5111.945312,1150.523926 5103.546875,1152.738770 
	C5101.038086,1153.400269 5098.543945,1154.119507 5095.692383,1154.909546 
	C5094.988281,1160.808594 5094.298828,1166.586060 5093.587891,1172.543945 
	C5126.812012,1172.543945 5158.951172,1172.543945 5191.535156,1172.543945 
	C5193.065918,1164.904419 5194.466309,1157.913696 5195.959473,1150.462646 
	C5193.520508,1150.294434 5191.896973,1150.093628 5190.272461,1150.085815 
	C5182.958008,1150.050293 5175.624023,1150.410522 5168.334473,1149.983276 
	C5159.074219,1149.440674 5155.220703,1146.207520 5153.387207,1136.976685 
	C5152.238281,1131.189941 5151.832520,1125.125366 5152.048340,1119.220215 
	C5153.081543,1090.985840 5154.715332,1062.770752 5155.478516,1034.531006 
	C5155.655273,1027.983643 5157.601562,1022.985718 5161.743164,1018.428467 
	C5165.095215,1014.740479 5168.197266,1010.740112 5171.970703,1007.538574 
	C5178.825195,1001.722351 5186.068848,996.431335 5195.445312,995.167847 
	C5204.677246,993.923767 5208.427246,996.022705 5210.304688,1005.257507 
	C5211.669434,1011.974792 5211.958008,1018.910767 5212.809082,1026.484375 
	C5218.742676,1026.124146 5224.491699,1025.775024 5230.113770,1025.433716 
	C5232.839355,1001.757812 5235.442383,979.149353 5238.088867,956.158569 
	C5225.859863,952.128113 5214.659180,953.066833 5203.872070,958.645996 
	C5185.777344,968.004272 5171.386719,981.588806 5159.522461,998.008789 
	C5158.163086,999.890259 5156.470215,1001.530579 5154.932129,1003.282654 
	C5154.269531,1002.998108 5153.607422,1002.713562 5152.945312,1002.429077 
	C5154.081543,989.573547 5155.218262,976.718018 5156.455566,962.128479 
M3525.163086,924.153748 
	C3522.065918,922.558044 3518.968750,920.962341 3516.005615,919.435791 
	C3498.803955,935.910767 3481.026611,949.785645 3461.090088,960.836853 
	C3458.906250,962.047424 3457.128418,965.097290 3456.441895,967.639465 
	C3455.447754,971.321838 3455.621094,975.319580 3455.296143,979.183289 
	C3460.531494,980.182495 3464.799316,980.790405 3468.958008,981.832886 
	C3478.296875,984.173889 3482.482178,988.947144 3483.563965,998.399475 
	C3483.865234,1001.032349 3483.641846,1003.726440 3483.641846,1006.392395 
	C3483.644287,1043.718262 3483.487061,1081.045288 3483.760498,1118.369141 
	C3483.823486,1126.951050 3484.642578,1135.670898 3486.378662,1144.065674 
	C3489.531494,1159.313232 3498.764404,1169.866943 3514.108398,1173.668701 
	C3522.422852,1175.729004 3531.116943,1176.564087 3539.693848,1177.118408 
	C3543.453857,1177.361328 3547.677002,1176.193481 3551.124268,1174.508911 
	C3565.196289,1167.633179 3577.777344,1158.423218 3590.556152,1148.699585 
	C3588.765137,1144.446289 3587.136475,1140.578491 3585.458008,1136.592285 
	C3580.926758,1138.347534 3577.258301,1139.878296 3573.515137,1141.197754 
	C3563.304932,1144.797241 3552.866943,1145.966064 3542.147705,1143.935303 
	C3530.728760,1141.772095 3522.316162,1135.935547 3519.675293,1124.140137 
	C3518.017822,1116.735840 3516.514160,1109.091675 3516.523438,1101.557129 
	C3516.553955,1076.589111 3517.150635,1051.618042 3517.833496,1026.656372 
	C3518.221924,1012.449524 3519.200928,998.258789 3519.937012,983.607971 
	C3543.128906,983.607971 3565.597412,983.607971 3588.793457,983.607971 
	C3590.111084,974.918518 3591.369385,966.618958 3592.626465,958.327759 
	C3568.493652,958.327759 3545.705566,958.327759 3521.659424,958.327759 
	C3522.903809,947.323608 3524.125244,936.524475 3525.163086,924.153748 
M5414.821289,1007.783447 
	C5430.785156,994.184570 5446.628906,980.438049 5466.764648,973.013123 
	C5468.628906,972.325562 5470.607422,970.214539 5471.256836,968.325806 
	C5472.605469,964.402161 5473.097168,960.183777 5474.073730,955.441040 
	C5457.817383,956.073975 5442.600586,956.898254 5427.373535,957.194031 
	C5412.116699,957.490356 5396.849609,957.259216 5380.783691,957.259216 
	C5379.539551,961.924988 5378.230469,966.833984 5376.771973,972.302246 
	C5379.646484,972.780762 5381.216309,973.141113 5382.805664,973.287109 
	C5386.775391,973.651855 5390.858887,973.453064 5394.708984,974.316284 
	C5404.770020,976.572021 5407.064453,982.993713 5400.759766,991.026184 
	C5398.306641,994.151062 5395.355469,996.921875 5392.421875,999.626160 
	C5375.039062,1015.648743 5357.607910,1031.619019 5340.164062,1047.575317 
	C5332.941895,1054.181396 5332.500488,1056.535645 5337.998535,1064.339600 
	C5356.780273,1090.998047 5375.480469,1117.717041 5394.575195,1144.150391 
	C5400.396484,1152.209473 5406.875488,1159.948975 5413.981934,1166.882935 
	C5422.074219,1174.778687 5432.146973,1179.717896 5443.849121,1177.830322 
	C5454.289062,1176.146362 5464.533203,1173.248779 5475.233398,1170.802246 
	C5476.129395,1165.197144 5476.927246,1160.206177 5477.730957,1155.179565 
	C5472.312988,1154.135986 5468.075684,1153.535034 5463.952637,1152.486450 
	C5450.435547,1149.048706 5440.174805,1140.417603 5431.673828,1130.087402 
	C5413.924316,1108.518066 5396.846191,1086.395264 5379.524902,1064.474121 
	C5376.265625,1060.348511 5373.157715,1056.103760 5369.759277,1051.623657 
	C5384.754883,1036.999756 5399.256348,1022.857849 5414.821289,1007.783447 
z"/>
<path fill="#FDFDFD" opacity="1.000000" stroke="none" 
	d="
M884.659302,1003.641357 
	C884.532532,1009.822083 884.405762,1016.002808 883.672119,1023.693970 
	C882.324158,1030.389771 881.004211,1035.617432 884.332336,1041.346924 
	C885.774109,1040.198120 886.903442,1039.298340 888.032715,1038.398560 
	C922.241272,1015.007385 959.202942,996.894897 997.504272,981.364807 
	C1067.276733,953.074158 1139.703247,935.254639 1214.419189,926.509766 
	C1215.349609,926.400879 1216.330933,926.724976 1217.610107,926.887939 
	C1216.244141,934.152710 1214.694580,941.195618 1213.617432,948.309998 
	C1202.854980,1019.399780 1253.937622,1085.281250 1323.720703,1094.411011 
	C1394.772705,1103.706909 1459.904785,1055.412476 1469.377319,984.645325 
	C1480.727783,899.847107 1413.149292,834.359314 1337.107422,837.371765 
	C1297.930786,838.923828 1266.058594,855.257751 1239.900146,885.185791 
	C1238.627686,884.230408 1238.321777,883.144531 1238.015747,882.058716 
	C1266.503296,821.935120 1308.697510,773.429626 1363.499390,736.092346 
	C1434.224243,687.906372 1512.805176,666.974426 1598.019165,672.451599 
	C1749.599365,682.194458 1880.077026,784.732666 1926.524902,929.928650 
	C1928.670166,936.634949 1931.964844,940.005493 1938.749756,942.272888 
	C2011.041504,966.432190 2081.884277,994.151978 2149.366211,1029.898193 
	C2179.111572,1045.654785 2207.910400,1062.931030 2234.704102,1083.404907 
	C2236.211670,1084.556885 2237.933350,1085.428345 2240.782715,1087.188477 
	C2241.115723,1082.808594 2241.472168,1079.611206 2241.586670,1076.405029 
	C2245.228516,974.354065 2225.468994,877.128845 2180.925293,785.155884 
	C2133.314941,686.850891 2064.677490,605.480103 1979.613525,537.658386 
	C1906.861572,479.652924 1826.711182,435.120544 1737.738037,407.062958 
	C1728.909302,404.278870 1719.947510,401.917114 1710.514282,399.206116 
	C1694.967041,427.467010 1672.647095,446.605682 1641.399414,454.383514 
	C1618.259399,460.143219 1595.817261,458.070648 1574.072266,448.468170 
	C1529.432129,428.755341 1504.885864,381.891541 1514.163574,332.788635 
	C1522.704834,287.584045 1561.672485,251.180939 1611.848877,249.039459 
	C1638.537354,247.900421 1662.409912,255.864471 1683.050903,272.933472 
	C1703.691528,290.002197 1715.392944,312.277893 1719.774170,337.305115 
	C1745.202637,346.159271 1769.995850,353.814850 1794.049561,363.337830 
	C1895.315796,403.429443 1984.519897,462.367737 2062.907227,537.767273 
	C2123.640625,596.186035 2174.196777,662.327881 2212.753174,737.429565 
	C2247.405518,804.926575 2270.349365,876.103577 2280.433838,951.401123 
	C2287.589844,1004.831299 2288.347656,1058.288940 2282.405029,1111.855957 
	C2282.074463,1114.835571 2281.458008,1117.883423 2281.785400,1120.808716 
	C2282.130127,1123.889038 2282.817871,1127.270386 2284.462402,1129.801636 
	C2289.168457,1137.046631 2294.435059,1143.927490 2299.549072,1152.175537 
	C2299.071533,1154.291260 2298.525879,1155.183228 2297.980469,1156.075195 
	C2297.980469,1156.075195 2297.992188,1156.031860 2297.982178,1155.525879 
	C2297.453857,1154.652588 2296.935547,1154.285156 2296.417480,1153.917725 
	C2291.451660,1147.809326 2286.485840,1141.700806 2280.232666,1134.009033 
	C2277.991943,1146.756958 2276.229248,1157.438721 2274.227539,1168.075562 
	C2247.689209,1309.087891 2184.347168,1431.093140 2084.462402,1534.004272 
	C2022.554810,1597.787231 1950.937866,1647.993652 1869.939453,1684.669922 
	C1808.977783,1712.273438 1745.434692,1731.084839 1679.084351,1740.364746 
	C1640.060913,1745.822754 1600.865356,1748.603149 1561.512451,1747.441895 
	C1493.264526,1745.427856 1426.409912,1734.550171 1361.429565,1713.278931 
	C1259.510132,1679.915649 1169.739380,1626.201416 1092.354614,1551.881104 
	C1067.799072,1528.297607 1045.065308,1503.068481 1024.285278,1476.109619 
	C1020.706238,1471.466309 1016.561646,1468.276978 1011.277954,1465.765015 
	C962.475769,1442.563721 915.529785,1416.193359 872.802124,1382.856567 
	C846.415283,1362.269043 822.379700,1339.285278 803.094604,1311.729004 
	C780.922668,1280.047607 767.973572,1245.396362 769.841614,1206.123291 
	C771.221558,1177.112793 780.916504,1150.833374 796.439941,1126.579346 
	C815.186768,1097.289429 839.852661,1073.617432 867.341553,1052.685181 
	C869.195312,1051.273438 871.087524,1049.912231 874.221802,1048.290039 
	C876.378601,1046.822266 877.275452,1045.592163 878.172241,1044.362061 
	C878.677063,1031.470825 879.181824,1018.579590 880.599487,1004.670898 
	C882.561340,1003.649414 883.610291,1003.645386 884.659302,1003.641357 
M1051.485107,1486.082520 
	C1061.820190,1497.385620 1071.710205,1509.136475 1082.558716,1519.923218 
	C1206.510254,1643.167969 1355.907959,1710.275391 1530.244141,1721.305664 
	C1587.003540,1724.896729 1643.529053,1720.662720 1699.267822,1709.310059 
	C1813.710449,1686.000488 1915.871704,1636.868286 2004.902710,1561.100464 
	C2080.347900,1496.894287 2139.031738,1419.840332 2180.524414,1329.770752 
	C2208.149170,1269.805298 2226.482178,1207.135864 2235.536621,1141.763794 
	C2237.448730,1127.958252 2238.668701,1114.056885 2240.229248,1100.006958 
	C2235.917236,1097.046509 2232.271240,1094.118896 2228.251709,1091.854004 
	C2205.660889,1079.124634 2183.520508,1065.440552 2160.227783,1054.140991 
	C2092.082275,1021.082642 2020.292358,997.885498 1947.387695,977.955811 
	C1944.678955,977.215332 1941.895020,976.750000 1938.829956,976.088196 
	C1976.844971,1205.241821 1812.646606,1396.225464 1605.124390,1413.506714 
	C1499.797485,1422.277710 1405.398804,1392.557007 1326.809082,1321.536011 
	C1218.564575,1223.716064 1183.349854,1100.687622 1209.629883,958.199829 
	C1144.353638,972.596619 1081.619507,993.041016 1021.429565,1021.064270 
	C976.005981,1042.212524 932.859619,1067.068848 894.291077,1099.423828 
	C889.051453,1103.819214 887.169189,1108.220703 888.311646,1114.775024 
	C892.368042,1138.046631 895.336609,1161.538330 900.215088,1184.630249 
	C913.856201,1249.199463 937.307739,1310.197266 968.938904,1368.095337 
	C971.601746,1372.969360 974.956116,1376.567017 979.916992,1379.114868 
	C995.302795,1387.017212 1010.345764,1395.608032 1025.884644,1403.187622 
	C1088.460205,1433.710693 1152.626709,1460.151611 1220.035034,1478.243652 
	C1288.982178,1496.748535 1359.412231,1504.258911 1430.492310,1505.742798 
	C1484.114624,1506.862305 1537.776001,1506.349731 1591.418823,1506.189819 
	C1642.102173,1506.038940 1692.621094,1502.502197 1743.046387,1497.601685 
	C1752.902222,1496.643921 1762.714722,1495.240356 1772.573486,1494.039185 
	C1776.122314,1477.523804 1785.172119,1465.212280 1797.109131,1455.238403 
	C1835.225342,1423.390991 1879.175293,1409.453613 1928.712769,1414.336060 
	C1940.031250,1415.451538 1950.810547,1419.191650 1960.208984,1426.026123 
	C1974.090210,1436.120239 1978.568115,1451.357910 1972.684326,1467.568604 
	C1968.476929,1479.159790 1961.339233,1488.788208 1952.199951,1496.696167 
	C1914.563599,1529.262939 1870.658813,1543.372559 1821.154541,1539.521240 
	C1809.159912,1538.588135 1797.313232,1535.285889 1787.727539,1527.574463 
	C1783.130981,1523.876709 1779.150269,1523.924927 1773.976440,1524.842773 
	C1740.561157,1530.771118 1707.236206,1537.489014 1673.611816,1541.883057 
	C1637.311035,1546.626709 1600.752441,1549.582153 1564.239868,1552.479736 
	C1504.101562,1557.252319 1443.864380,1559.680054 1383.502686,1558.551880 
	C1325.704956,1557.471680 1268.558960,1551.157104 1212.206055,1538.197998 
	C1159.875732,1526.164062 1109.511230,1508.145874 1059.975220,1487.651978 
	C1057.036255,1486.436035 1053.846802,1485.825073 1051.485107,1486.082520 
M866.624695,1294.372803 
	C890.824097,1320.610229 919.078552,1341.684692 949.950317,1359.940308 
	C912.627625,1281.791138 888.894226,1200.115723 881.071106,1114.119873 
	C879.575684,1114.218262 878.706299,1114.005859 878.370911,1114.336060 
	C860.934204,1131.499023 845.783142,1150.321777 836.081848,1173.056641 
	C824.560669,1200.056152 825.439392,1226.746460 838.095215,1253.147339 
	C845.202576,1267.973633 854.726135,1281.131104 866.624695,1294.372803 
z"/>
<path fill="#FAFBFB" opacity="1.000000" stroke="none" 
	d="
M2415.844238,939.781738 
	C2437.807373,903.771240 2468.098145,879.374939 2508.466064,869.256592 
	C2555.455322,857.478455 2599.108398,864.400269 2636.458984,897.260254 
	C2658.194092,916.381958 2670.735840,941.176392 2676.775635,969.194702 
	C2687.342285,1018.213684 2680.528809,1064.560669 2653.044189,1106.916748 
	C2632.983398,1137.831787 2605.161621,1159.203613 2569.753662,1170.283569 
	C2568.531006,1170.666260 2567.389648,1171.308594 2565.393311,1172.190674 
	C2566.740234,1173.761230 2567.495850,1175.132935 2568.650635,1175.916260 
	C2592.634033,1192.179443 2617.289551,1207.308350 2643.536621,1219.696045 
	C2676.108643,1235.068726 2709.854736,1240.998291 2745.413818,1232.216064 
	C2746.652588,1231.910156 2748.032471,1232.177124 2749.395996,1232.177124 
	C2750.149170,1233.471191 2750.988525,1234.543579 2751.431152,1235.760132 
	C2752.102051,1237.602539 2752.497314,1239.545410 2753.247559,1242.330078 
	C2741.698486,1251.372803 2730.291992,1260.480103 2718.679199,1269.316284 
	C2713.484863,1273.268433 2707.519531,1274.216797 2700.830322,1273.961548 
	C2672.581299,1272.883667 2647.586914,1262.170288 2624.524902,1247.252319 
	C2593.247559,1227.020020 2562.768311,1205.542847 2532.184814,1184.257568 
	C2525.983643,1179.941895 2520.038330,1177.629639 2512.262207,1177.021606 
	C2451.740479,1172.290283 2414.318115,1133.731567 2400.107422,1087.744507 
	C2384.337646,1036.712036 2388.874512,987.287659 2415.844238,939.781738 
M2436.999756,1059.701660 
	C2440.769531,1075.281006 2446.166992,1090.236328 2454.474121,1104.007690 
	C2477.294678,1141.837646 2517.456299,1161.188232 2561.805664,1149.853760 
	C2594.617676,1141.467773 2616.121582,1119.664917 2628.066162,1088.797363 
	C2643.686279,1048.430542 2642.091309,1007.551025 2628.287842,966.970398 
	C2619.900879,942.313660 2605.319092,922.282715 2583.238525,907.817139 
	C2549.157959,885.489929 2492.197510,885.418091 2459.396729,927.710876 
	C2440.892334,951.569885 2433.816650,979.097168 2432.387939,1008.538757 
	C2431.579102,1025.208374 2433.365967,1041.710205 2436.999756,1059.701660 
z"/>
<path fill="#FAFBFB" opacity="1.000000" stroke="none" 
	d="
M4191.427734,968.551147 
	C4203.423828,980.504822 4208.898438,994.563049 4208.233398,1010.545837 
	C4207.251953,1034.126953 4205.371094,1057.669556 4204.023926,1081.237183 
	C4203.208496,1095.513184 4202.621582,1109.803223 4202.061523,1124.092041 
	C4201.917969,1127.744141 4202.017090,1131.444214 4202.435059,1135.072876 
	C4203.809570,1147.022827 4208.549805,1151.135132 4220.775391,1151.251709 
	C4225.704102,1151.298828 4230.633789,1151.259521 4236.624023,1151.259521 
	C4235.019531,1159.006714 4233.568848,1166.013550 4232.131836,1172.951172 
	C4201.768555,1172.951172 4172.281738,1172.951172 4142.152344,1172.951172 
	C4142.895508,1167.298950 4143.659180,1161.489502 4144.501465,1155.083618 
	C4146.429199,1154.604736 4148.293945,1154.234497 4150.101562,1153.677979 
	C4164.378906,1149.281006 4169.357422,1142.685303 4169.621582,1127.404907 
	C4169.938965,1109.084106 4170.003906,1090.758911 4170.347656,1072.438843 
	C4170.522461,1063.127808 4170.971191,1053.818237 4171.476562,1044.518066 
	C4172.094238,1033.151367 4171.524902,1021.906006 4168.251953,1010.947205 
	C4161.472656,988.250061 4142.365723,981.929016 4124.926270,984.736572 
	C4107.774902,987.497681 4093.073730,995.839294 4078.786865,1005.176147 
	C4075.128174,1007.567261 4074.565674,1010.984741 4074.417725,1014.616333 
	C4073.442627,1038.559204 4072.620605,1062.508423 4071.672852,1086.452393 
	C4071.212402,1098.088623 4070.319824,1109.714600 4070.151367,1121.352783 
	C4070.065674,1127.272827 4070.491943,1133.366333 4071.856689,1139.103027 
	C4073.984131,1148.046387 4078.381592,1151.037598 4087.543701,1151.239502 
	C4092.511719,1151.348999 4097.483887,1151.259155 4103.856445,1151.259155 
	C4102.646973,1158.559204 4101.501953,1165.471680 4100.268066,1172.917236 
	C4084.794434,1172.536865 4069.920166,1171.436035 4055.111572,1172.013550 
	C4040.265625,1172.592529 4025.484619,1174.846313 4010.182617,1176.416626 
	C4010.182617,1170.865967 4010.182617,1164.982544 4010.182617,1158.581543 
	C4012.754883,1157.540039 4015.120361,1156.509033 4017.536621,1155.615845 
	C4030.992432,1150.642212 4037.473877,1140.849976 4037.644043,1126.659546 
	C4037.864014,1108.337036 4038.000732,1090.012695 4038.348877,1071.692627 
	C4038.532227,1062.052490 4039.003662,1052.414917 4039.500488,1042.784180 
	C4040.070557,1031.737549 4039.329102,1020.818054 4035.998779,1010.245605 
	C4029.264648,988.865967 4011.894043,982.125854 3994.146729,984.537354 
	C3975.946045,987.010376 3960.414795,996.188232 3945.345459,1006.155457 
	C3941.555908,1008.661926 3941.901611,1012.328674 3941.741943,1015.873779 
	C3940.993652,1032.499512 3940.332764,1049.129395 3939.709473,1065.760376 
	C3939.023926,1084.052612 3938.198242,1102.344116 3937.886475,1120.643555 
	C3937.774170,1127.222168 3938.341064,1133.962769 3939.745605,1140.378174 
	C3941.426758,1148.057739 3945.395508,1150.840698 3953.227539,1151.194946 
	C3959.187500,1151.464722 3965.169434,1151.248657 3972.523438,1151.248657 
	C3971.007080,1158.682617 3969.593018,1165.614990 3968.092529,1172.970581 
	C3952.667969,1172.570435 3937.794678,1172.036621 3922.916748,1171.840698 
	C3908.306396,1171.648193 3893.691406,1171.798828 3878.217773,1171.798828 
	C3878.983643,1165.945312 3879.739258,1160.170898 3880.598633,1153.602295 
	C3883.040283,1153.017822 3885.532715,1152.451782 3888.009521,1151.822754 
	C3897.141357,1149.503540 3903.798340,1144.839722 3904.558594,1134.485474 
	C3904.800293,1131.193726 3905.588623,1127.919556 3905.595215,1124.636353 
	C3905.670898,1087.309082 3905.694336,1049.981567 3905.577881,1012.654541 
	C3905.563477,1008.041077 3904.973877,1003.368958 3904.097900,998.830750 
	C3902.096924,988.466553 3896.790771,983.974976 3886.379883,983.327026 
	C3883.131104,983.124756 3879.876465,983.019226 3877.070557,982.889954 
	C3876.390137,981.420898 3875.856201,980.815308 3875.878906,980.231445 
	C3876.059082,975.602661 3876.345703,970.978027 3876.644775,965.526672 
	C3882.521973,964.363708 3888.314697,963.288269 3894.075684,962.063416 
	C3908.054688,959.091187 3922.021973,956.064514 3935.987793,953.030457 
	C3945.849854,950.887939 3946.556396,951.710083 3944.743408,961.266296 
	C3943.216309,969.316040 3942.294189,977.480591 3941.104248,985.594299 
	C3941.728760,986.002686 3942.353271,986.411133 3942.977783,986.819519 
	C3945.923584,984.924255 3948.807373,982.923462 3951.825928,981.151855 
	C3965.290771,973.248840 3978.947021,965.660583 3992.248291,957.493042 
	C4013.292725,944.571289 4057.092285,954.068848 4069.973633,983.818726 
	C4070.616943,985.304688 4071.581299,986.651550 4072.617432,988.445679 
	C4082.089355,982.281067 4091.141113,976.176636 4100.414551,970.429443 
	C4106.624023,966.581055 4113.081543,963.114746 4119.542969,959.693909 
	C4145.228516,946.094971 4168.852539,950.537109 4191.427734,968.551147 
z"/>
<path fill="#FBFBFB" opacity="1.000000" stroke="none" 
	d="
M4646.027344,1281.310181 
	C4636.529297,1282.141602 4627.975586,1282.971069 4618.900879,1283.851196 
	C4619.516113,1277.744751 4620.064941,1272.293945 4620.707031,1265.921631 
	C4623.258789,1265.243652 4626.019531,1264.459229 4628.805176,1263.779175 
	C4638.833008,1261.331055 4643.246094,1256.730103 4644.134277,1246.733154 
	C4644.928223,1237.798706 4645.553711,1228.815796 4645.583496,1219.852051 
	C4645.808594,1151.210083 4645.915527,1082.567505 4645.898926,1013.925171 
	C4645.897461,1008.003235 4645.149902,1002.003296 4644.027832,996.178528 
	C4642.409668,987.779175 4636.303223,984.127930 4628.284180,983.393677 
	C4624.746094,983.069702 4621.153320,983.339050 4616.199707,983.339050 
	C4616.823242,976.584412 4617.322754,971.173218 4617.835449,965.620056 
	C4640.346191,960.877686 4662.319336,956.248596 4685.246094,951.418701 
	C4688.406250,962.296875 4680.295410,972.248108 4683.777832,983.467896 
	C4687.188477,981.382996 4689.915039,979.743774 4692.614258,978.060791 
	C4702.211914,972.077759 4711.894043,966.224915 4721.367188,960.050171 
	C4732.436523,952.834351 4744.329590,952.080933 4756.833008,954.683960 
	C4795.149414,962.660889 4818.992676,986.603271 4827.073242,1023.922241 
	C4838.235840,1075.473755 4822.815430,1119.378174 4781.915527,1153.176392 
	C4756.974609,1173.786255 4727.397949,1179.737915 4695.676758,1176.829956 
	C4690.119141,1176.320679 4684.533691,1176.107544 4678.354004,1175.719482 
	C4678.354004,1183.596680 4678.212402,1190.847534 4678.384277,1198.090820 
	C4678.731445,1212.711182 4678.721680,1227.368164 4679.847168,1241.933594 
	C4680.964844,1256.392090 4686.663086,1261.026245 4701.155273,1261.249023 
	C4706.416016,1261.329834 4711.678223,1261.261963 4717.991699,1261.261963 
	C4716.541992,1268.075195 4715.325195,1273.794922 4714.109375,1279.510986 
	C4691.464844,1280.117188 4669.218262,1280.712769 4646.027344,1281.310181 
M4773.540039,1007.549927 
	C4769.991211,1004.065369 4766.728516,1000.218018 4762.843262,997.160889 
	C4747.796875,985.321045 4731.169922,981.928101 4713.418457,990.084717 
	C4704.424316,994.217224 4696.093750,999.792908 4687.460449,1004.711548 
	C4683.698730,1006.854309 4681.999023,1009.901306 4681.890625,1014.405212 
	C4681.627441,1025.361084 4680.770020,1036.301147 4680.372070,1047.255493 
	C4679.829590,1062.208252 4679.308594,1077.166138 4679.114258,1092.126099 
	C4678.899414,1108.656006 4679.064941,1125.190918 4679.064941,1142.111694 
	C4695.046387,1148.362671 4711.653320,1151.810791 4728.659668,1151.107300 
	C4760.171875,1149.804077 4782.112305,1131.371582 4790.014160,1100.742554 
	C4791.252441,1095.942993 4792.076660,1091.000610 4792.655273,1086.072876 
	C4795.943359,1058.090820 4791.708984,1031.832153 4773.540039,1007.549927 
z"/>
<path fill="#FAFAFA" opacity="1.000000" stroke="none" 
	d="
M4517.011719,898.542114 
	C4492.416992,887.433472 4467.955078,886.731873 4443.722656,896.268799 
	C4427.386230,902.698059 4414.022461,916.493652 4415.645508,938.894836 
	C4416.333984,948.403931 4420.834473,955.931885 4426.763672,962.850952 
	C4435.785645,973.379456 4447.092773,981.021362 4459.142578,987.552856 
	C4475.502441,996.420776 4492.268066,1004.563965 4508.399414,1013.820984 
	C4519.886230,1020.412476 4531.337402,1027.444824 4541.542480,1035.818848 
	C4570.438965,1059.531860 4573.874023,1088.186279 4559.302246,1120.907959 
	C4551.606445,1138.188110 4538.148926,1150.551392 4521.869141,1159.891113 
	C4503.025391,1170.701172 4482.480957,1175.969849 4461.020508,1177.177246 
	C4435.535156,1178.611084 4410.582520,1175.285522 4386.580566,1166.109741 
	C4373.226074,1161.004639 4372.794922,1159.737671 4374.374023,1145.476074 
	C4376.088867,1129.977051 4377.094238,1114.397339 4378.283691,1098.843018 
	C4378.890137,1090.914795 4379.221191,1082.965332 4379.730469,1074.089844 
	C4386.333008,1073.280884 4392.732422,1072.496826 4399.842285,1071.625732 
	C4400.493652,1080.879883 4400.705078,1089.436890 4401.790039,1097.881470 
	C4403.094727,1108.033081 4404.256836,1118.347168 4407.099609,1128.119873 
	C4410.464844,1139.688599 4418.916992,1147.288696 4430.760742,1150.308105 
	C4451.144531,1155.504761 4471.700684,1156.051270 4491.754395,1149.342529 
	C4509.797363,1143.306396 4522.896484,1131.944214 4526.741699,1112.028687 
	C4529.230469,1099.141846 4526.904785,1087.674683 4518.633789,1077.409302 
	C4510.126465,1066.850220 4499.345703,1059.074951 4487.689453,1052.535889 
	C4467.979492,1041.478882 4447.779785,1031.267578 4428.362793,1019.729065 
	C4417.864746,1013.490540 4407.797852,1006.059875 4398.871094,997.735962 
	C4376.571289,976.942505 4373.039551,949.510803 4385.132324,921.866089 
	C4396.216797,896.526978 4416.754395,881.416321 4442.022949,871.979492 
	C4467.735840,862.376709 4494.176758,862.559326 4520.760254,866.683777 
	C4531.245605,868.310608 4541.558105,871.097900 4551.906250,873.540527 
	C4555.037598,874.279724 4558.022949,875.635315 4560.995605,876.680359 
	C4557.353516,904.380920 4553.826172,931.210144 4550.168457,959.033386 
	C4545.475586,959.606384 4539.968262,960.630615 4534.428711,960.846313 
	C4529.826172,961.025635 4529.658203,957.596680 4529.787598,953.883545 
	C4530.133789,943.934937 4530.580566,933.957642 4530.179688,924.024292 
	C4529.774414,913.998108 4525.837402,905.304382 4517.011719,898.542114 
z"/>
<path fill="#FAFAFA" opacity="1.000000" stroke="none" 
	d="
M3263.745605,951.906677 
	C3268.348633,953.175415 3267.754150,955.936035 3267.153809,959.130127 
	C3265.509766,967.873291 3264.197998,976.678833 3262.420898,987.492493 
	C3266.537842,985.299622 3268.747559,984.200134 3270.883545,982.972656 
	C3285.861084,974.365845 3300.367432,964.787964 3315.883057,957.298828 
	C3351.360352,940.174622 3393.478760,963.968079 3397.590088,1003.224060 
	C3398.726074,1014.071411 3398.061035,1025.178101 3397.440430,1036.121460 
	C3396.594482,1051.032227 3394.777832,1065.885986 3393.789062,1080.791260 
	C3392.821045,1095.383423 3392.119141,1110.004883 3391.822998,1124.623901 
	C3391.717041,1129.842163 3392.555908,1135.260010 3394.003174,1140.287476 
	C3396.267822,1148.155273 3400.451172,1150.961670 3408.614746,1151.223511 
	C3413.894043,1151.392700 3419.183350,1151.255371 3425.791504,1151.255371 
	C3424.504639,1158.526367 3423.277588,1165.459106 3421.854004,1173.502808 
	C3391.648926,1170.999268 3361.849365,1170.531128 3331.253906,1177.651855 
	C3331.699463,1170.683716 3332.091064,1164.556763 3332.483398,1158.418213 
	C3334.323242,1157.538818 3335.753906,1156.656616 3337.306641,1156.143066 
	C3354.850830,1150.342041 3359.123291,1140.694580 3359.541260,1124.745483 
	C3360.152100,1101.443359 3360.118652,1078.123657 3360.297363,1054.811035 
	C3360.378906,1044.182495 3360.536865,1033.545776 3360.201172,1022.927185 
	C3360.066895,1018.680420 3359.121582,1014.335815 3357.815186,1010.270447 
	C3351.245850,989.830017 3334.312744,981.956787 3315.932373,984.553162 
	C3297.737793,987.123291 3282.096924,996.075317 3267.250000,1006.354431 
	C3265.432861,1007.612549 3263.924072,1010.617371 3263.833740,1012.875061 
	C3262.306152,1051.095459 3260.978760,1089.324341 3259.759766,1127.556030 
	C3259.633789,1131.503784 3260.037598,1135.588867 3260.963623,1139.424927 
	C3262.957031,1147.683228 3267.273438,1150.956665 3275.905762,1151.220703 
	C3281.544189,1151.393188 3287.192383,1151.253296 3294.315918,1151.253296 
	C3292.821533,1158.642090 3291.427734,1165.532837 3289.927002,1172.952637 
	C3260.037354,1172.952637 3230.586182,1172.952637 3200.057617,1172.952637 
	C3200.692383,1167.538574 3201.396240,1161.536621 3202.058105,1155.893799 
	C3203.001221,1155.172119 3203.460205,1154.549072 3204.027588,1154.426147 
	C3225.630371,1149.739746 3227.159424,1140.816406 3227.427734,1125.256836 
	C3228.076660,1087.622314 3227.687744,1049.968872 3227.571777,1012.323425 
	C3227.558594,1008.035645 3226.766846,1003.726624 3226.078125,999.469116 
	C3224.363770,988.868225 3218.792725,983.991882 3207.859863,983.327637 
	C3204.917480,983.148804 3201.970215,983.048462 3198.358154,982.881226 
	C3198.358154,976.981018 3198.358154,971.543640 3198.358154,965.800781 
	C3220.294434,961.116089 3241.658203,956.553589 3263.745605,951.906677 
z"/>
<path fill="#FAFAFA" opacity="1.000000" stroke="none" 
	d="
M2794.595703,1140.177734 
	C2811.633545,1147.244263 2827.334473,1145.088379 2842.175537,1136.442505 
	C2851.633545,1130.932373 2860.549561,1124.491821 2870.308838,1118.073730 
	C2870.308838,1115.476929 2870.308838,1112.883667 2870.308838,1110.290405 
	C2870.308838,1075.640869 2870.308838,1040.991333 2870.308838,1006.341858 
	C2870.308838,1005.675537 2870.292969,1005.008728 2870.310547,1004.342896 
	C2870.753418,987.432861 2861.865234,982.332336 2846.454834,982.235229 
	C2843.505859,982.216675 2840.552002,982.970703 2836.133301,983.566040 
	C2836.684326,977.329346 2837.185791,971.655640 2837.682861,966.031311 
	C2862.172363,961.466614 2885.947266,957.035034 2910.386230,952.479675 
	C2912.394287,953.972229 2913.798340,956.229370 2913.022461,959.571533 
	C2907.586182,982.991455 2906.333496,1006.853882 2905.714844,1030.760864 
	C2904.931396,1061.035889 2904.193604,1091.313843 2903.753418,1121.595093 
	C2903.499023,1139.116577 2912.692627,1146.262329 2930.036865,1142.396118 
	C2933.861084,1141.543579 2937.587891,1139.955688 2941.134033,1138.240601 
	C2944.397461,1136.662354 2947.357422,1134.456787 2951.451416,1131.903809 
	C2953.289307,1134.089111 2955.356934,1136.547241 2957.507080,1139.103516 
	C2949.792969,1151.602539 2939.659180,1161.612549 2929.476318,1171.716187 
	C2918.215332,1182.889404 2886.133301,1177.022827 2878.265625,1156.305054 
	C2876.162842,1150.767334 2874.915527,1144.904785 2872.909668,1137.917114 
	C2869.894043,1139.995605 2867.077881,1142.028564 2864.172363,1143.923584 
	C2849.698242,1153.363159 2835.794678,1163.886597 2820.589600,1171.954102 
	C2787.105957,1189.719604 2745.659424,1166.473755 2743.866455,1128.806519 
	C2742.713623,1104.588745 2744.000732,1080.256226 2744.144043,1055.974976 
	C2744.250000,1038.016479 2744.343994,1020.057251 2744.267578,1002.099182 
	C2744.255371,999.172180 2743.702148,996.123169 2742.759766,993.347595 
	C2739.919434,984.979797 2735.958496,982.176270 2727.252441,982.151062 
	C2723.724609,982.140808 2720.195801,982.576721 2715.675537,982.875000 
	C2716.362793,977.144287 2717.014893,971.707642 2717.654053,966.379456 
	C2740.550049,961.575073 2762.592041,956.949890 2785.991699,952.039856 
	C2786.449219,955.125000 2787.777832,958.282654 2787.192139,961.032837 
	C2781.223633,989.067688 2778.846191,1017.483887 2777.713135,1046.038452 
	C2777.027344,1063.323364 2776.385010,1080.614868 2776.133057,1097.909424 
	C2776.046387,1103.836304 2776.864014,1109.840210 2777.871826,1115.705078 
	C2779.643066,1126.009888 2784.740967,1134.328491 2794.595703,1140.177734 
z"/>
<path fill="#FAFBFB" opacity="1.000000" stroke="none" 
	d="
M3677.022949,1031.204834 
	C3676.010010,1053.731445 3674.804688,1075.341064 3674.556152,1096.961914 
	C3674.466064,1104.803223 3675.817383,1112.914062 3677.992676,1120.475586 
	C3682.477295,1136.064941 3693.610352,1143.558594 3709.829102,1144.159302 
	C3722.268066,1144.619873 3733.527344,1141.566284 3743.834229,1134.790771 
	C3752.446533,1129.129395 3760.965820,1123.326904 3769.643799,1117.507935 
	C3769.643799,1083.528442 3769.643799,1049.895752 3769.643555,1016.263062 
	C3769.643555,1012.264160 3769.813721,1008.256531 3769.610840,1004.267883 
	C3768.797363,988.271118 3760.248047,980.900330 3744.201660,982.238708 
	C3741.574463,982.457703 3738.955078,982.770447 3736.327637,982.989502 
	C3736.062500,983.011597 3735.768066,982.683777 3734.770264,982.095947 
	C3735.303223,977.014282 3735.873779,971.574890 3736.455811,966.025146 
	C3760.680176,961.505798 3784.495605,957.062805 3808.935547,952.503235 
	C3811.745850,954.056335 3812.360107,956.917969 3811.556885,960.552246 
	C3805.500488,987.959045 3804.619629,1015.870850 3803.728271,1043.759521 
	C3802.973633,1067.376953 3802.571777,1091.005493 3802.028564,1114.629517 
	C3801.975098,1116.960938 3801.974121,1119.296021 3802.033691,1121.627197 
	C3802.479248,1139.051636 3811.764404,1146.323364 3828.826172,1142.525635 
	C3831.405762,1141.951538 3834.030762,1141.210693 3836.375244,1140.031494 
	C3840.793457,1137.809204 3845.022705,1135.211548 3850.016846,1132.380981 
	C3851.844727,1134.294434 3854.064941,1136.618530 3857.241943,1139.944092 
	C3848.510254,1149.689575 3840.591309,1159.551392 3831.605957,1168.320190 
	C3817.662598,1181.927246 3792.028809,1179.140259 3781.043457,1162.913208 
	C3777.610352,1157.841919 3776.060059,1151.466309 3773.853760,1145.610229 
	C3773.067383,1143.523315 3772.889404,1141.207031 3772.187256,1137.799438 
	C3769.104248,1139.788086 3766.778564,1141.280762 3764.460205,1142.785278 
	C3749.133789,1152.731812 3734.450684,1163.900513 3718.348145,1172.371460 
	C3686.031494,1189.372192 3644.371338,1166.037109 3642.402832,1129.680298 
	C3641.073486,1105.130493 3642.430420,1080.431030 3642.712891,1055.799805 
	C3642.911377,1038.489624 3643.398926,1021.182556 3643.569580,1003.872192 
	C3643.598633,1000.941589 3642.932129,997.931152 3642.146729,995.078796 
	C3639.529053,985.572510 3634.623291,981.935364 3624.842041,982.137756 
	C3621.628418,982.204224 3618.422363,982.622925 3614.451172,982.941772 
	C3615.079346,977.315063 3615.652588,972.180542 3616.293457,966.439331 
	C3638.762939,961.701538 3661.082520,956.995361 3684.768555,952.001099 
	C3685.170410,955.204895 3686.169434,958.277893 3685.824463,961.191956 
	C3683.097168,984.242493 3680.113525,1007.262756 3677.022949,1031.204834 
z"/>
<path fill="#FAFAFA" opacity="1.000000" stroke="none" 
	d="
M3128.256836,996.117065 
	C3128.594971,1007.547607 3129.619629,1018.187378 3128.916504,1028.711670 
	C3126.880127,1059.195801 3124.139893,1089.632812 3121.712158,1120.091187 
	C3121.553955,1122.077637 3121.569336,1124.099487 3121.730469,1126.086304 
	C3122.618652,1137.026123 3128.859619,1142.852905 3139.821289,1143.267578 
	C3151.097412,1143.694092 3160.286133,1138.692627 3169.197510,1131.883667 
	C3171.440674,1134.465698 3173.552979,1136.897217 3175.760498,1139.437988 
	C3168.482666,1150.741089 3160.060303,1160.383179 3150.272217,1169.128052 
	C3131.144287,1186.217773 3099.949463,1173.843018 3094.393066,1151.000610 
	C3093.476074,1147.230469 3092.608643,1143.448608 3091.446289,1138.518677 
	C3085.542969,1143.788330 3080.595215,1148.592773 3075.240967,1152.890991 
	C3067.728271,1158.921997 3060.045166,1164.762939 3052.181641,1170.327148 
	C3046.918457,1174.051147 3040.903320,1175.545532 3034.276611,1175.385254 
	C2996.554688,1174.473389 2968.841309,1137.738159 2979.806396,1102.817749 
	C2983.761230,1090.222168 2991.777100,1081.596802 3004.867432,1078.037720 
	C3031.477051,1070.803101 3058.050049,1063.434326 3084.633789,1056.104126 
	C3086.872803,1055.486694 3089.076904,1054.743408 3091.710938,1053.930908 
	C3092.855713,1041.752686 3094.097412,1029.696411 3091.893555,1017.440979 
	C3087.187500,991.272644 3064.833496,977.527039 3036.946533,985.378479 
	C3025.931152,988.479858 3015.708740,994.520203 3005.295166,999.572937 
	C3001.501709,1001.413635 2998.202637,1004.273010 2993.362305,1007.561523 
	C2991.008057,999.614136 2988.911377,992.535889 2986.702881,985.081360 
	C3007.560547,973.211792 3027.828369,961.821106 3049.949951,954.447388 
	C3070.927002,947.455139 3106.229004,953.773804 3120.244873,977.083191 
	C3123.622803,982.700806 3125.556396,989.186890 3128.256836,996.117065 
M3063.772949,1080.626709 
	C3051.733643,1084.363525 3039.633545,1087.916626 3027.675049,1091.896240 
	C3018.352783,1094.998535 3014.343018,1100.822388 3014.049316,1110.434692 
	C3013.386719,1132.121338 3032.906738,1147.435669 3054.420166,1141.799316 
	C3066.897217,1138.530518 3077.425537,1131.577637 3086.654297,1122.717041 
	C3088.147705,1121.282959 3089.432861,1118.886108 3089.535645,1116.869263 
	C3090.279053,1102.315186 3090.692627,1087.744141 3091.232178,1072.574219 
	C3082.385742,1075.153809 3073.846191,1077.644043 3063.772949,1080.626709 
z"/>
<path fill="#FAFAFA" opacity="1.000000" stroke="none" 
	d="
M4981.716309,1039.849609 
	C4981.141602,1030.652466 4981.385254,1022.216492 4979.708496,1014.181274 
	C4975.707520,995.012878 4961.861816,984.043518 4942.078125,983.340332 
	C4925.416016,982.748108 4910.963867,989.346619 4897.112793,997.622559 
	C4892.355469,1000.464783 4887.848145,1003.724609 4882.085938,1007.551208 
	C4879.767090,999.635193 4877.757812,992.776123 4875.471191,984.969116 
	C4886.083984,979.257141 4896.377930,973.305481 4907.037109,968.101074 
	C4916.877441,963.296082 4926.842773,958.467285 4937.225586,955.111145 
	C4957.693359,948.495178 4977.461426,951.472839 4995.422363,963.181030 
	C5010.801758,973.206238 5018.174316,988.447449 5018.133301,1006.403870 
	C5018.093750,1023.645630 5016.316895,1040.890503 5015.112793,1058.120728 
	C5013.630859,1079.327026 5011.398438,1100.496948 5010.535156,1121.725220 
	C5009.848633,1138.584961 5019.570801,1146.343018 5036.165039,1142.507690 
	C5043.708496,1140.764038 5050.704590,1136.650635 5058.944336,1133.194824 
	C5060.133301,1134.452759 5062.323730,1136.770630 5064.704590,1139.289551 
	C5057.481445,1150.415527 5049.313477,1159.807617 5039.937012,1168.475586 
	C5019.388672,1187.470703 4987.177734,1172.102051 4983.462402,1150.932983 
	C4982.835938,1147.366455 4981.833496,1143.865845 4980.773926,1139.349731 
	C4978.832031,1140.603394 4976.968750,1141.563843 4975.387695,1142.866821 
	C4965.895508,1150.690552 4956.420898,1158.536865 4947.032227,1166.484253 
	C4935.805176,1175.988037 4923.118652,1176.990723 4909.471680,1173.422729 
	C4875.816406,1164.623901 4862.171387,1131.887939 4867.668945,1106.828613 
	C4870.935059,1091.942871 4879.331543,1081.883179 4894.491211,1077.801880 
	C4921.119141,1070.633057 4947.680176,1063.213379 4974.262695,1055.875854 
	C4976.500000,1055.258301 4978.688965,1054.466919 4981.662109,1053.511353 
	C4981.662109,1049.319824 4981.662109,1045.056274 4981.716309,1039.849609 
M4978.332520,1112.649780 
	C4978.983398,1099.515869 4979.634766,1086.382080 4980.333496,1072.279175 
	C4958.116699,1079.072632 4937.128906,1085.276367 4916.293457,1091.955688 
	C4906.541504,1095.082031 4902.229980,1102.412598 4902.859863,1112.725220 
	C4904.110840,1133.210938 4921.576172,1146.494019 4941.645508,1142.108643 
	C4954.706055,1139.254639 4965.478516,1132.086792 4975.025391,1123.146851 
	C4977.069824,1121.232788 4977.278320,1117.358643 4978.332520,1112.649780 
z"/>
<path fill="#F9FAFA" opacity="1.000000" stroke="none" 
	d="
M5618.294922,990.850220 
	C5614.566895,982.949890 5608.646484,978.954712 5601.187500,977.171387 
	C5588.372559,974.107788 5575.461426,973.468384 5563.032227,978.473450 
	C5542.809570,986.616943 5538.456543,1004.491882 5553.233887,1020.492737 
	C5558.993652,1026.729492 5566.376465,1031.725952 5573.676270,1036.221802 
	C5585.270508,1043.362549 5597.589355,1049.319702 5609.268555,1056.332031 
	C5617.518555,1061.284912 5625.486328,1066.806396 5633.113281,1072.679810 
	C5659.034180,1092.641357 5654.891602,1120.465088 5643.032227,1138.391968 
	C5630.682617,1157.059937 5613.026367,1168.387939 5591.713379,1173.909058 
	C5565.845703,1180.610352 5540.267578,1177.474854 5515.035156,1169.995239 
	C5511.201172,1168.858765 5507.160156,1167.419434 5507.683594,1162.105225 
	C5509.695312,1141.676392 5511.756836,1121.252563 5513.831055,1100.514038 
	C5518.958496,1099.696777 5523.803223,1098.924561 5529.245605,1098.057007 
	C5530.092285,1105.540771 5530.628906,1112.714478 5531.755371,1119.794189 
	C5535.446289,1143.002319 5545.142578,1151.843140 5568.480469,1154.308838 
	C5580.346191,1155.562378 5591.681641,1154.323730 5602.322266,1148.765259 
	C5621.874023,1138.551758 5624.264648,1119.006104 5606.458496,1105.573608 
	C5592.992676,1095.414917 5577.847168,1087.491333 5563.506348,1078.481201 
	C5552.829590,1071.773315 5541.584473,1065.754272 5531.744141,1057.972778 
	C5501.497559,1034.055542 5509.360840,999.343323 5527.382812,979.735596 
	C5543.617188,962.072449 5564.692383,954.476440 5587.745117,952.259521 
	C5606.419922,950.463623 5624.940918,953.038086 5642.993164,958.318176 
	C5644.476562,958.752075 5645.743652,959.924561 5647.240723,960.832581 
	C5645.374512,970.945251 5643.385742,980.646912 5641.838379,990.418457 
	C5640.334473,999.911377 5639.284180,1009.476013 5637.962402,1019.562439 
	C5632.543945,1020.069702 5627.061035,1020.583069 5620.302734,1021.215759 
	C5621.652344,1010.855103 5623.068848,1000.935547 5618.294922,990.850220 
z"/>
<path fill="#F9F9F9" opacity="1.000000" stroke="none" 
	d="
M5334.411133,831.427002 
	C5328.471680,876.126831 5326.484375,920.244995 5325.662109,964.451599 
	C5324.684082,1017.000122 5323.415527,1069.543213 5322.446289,1122.092041 
	C5322.342773,1127.691406 5323.027832,1133.376953 5324.000977,1138.907349 
	C5325.441406,1147.091553 5330.061035,1150.890869 5338.414551,1151.203003 
	C5344.290527,1151.422485 5350.181641,1151.245361 5357.208008,1151.245361 
	C5355.845215,1158.561279 5354.602539,1165.232422 5353.163574,1172.957275 
	C5323.336426,1172.957275 5293.625488,1172.957275 5263.206055,1172.957275 
	C5263.723633,1167.506104 5264.295410,1161.484375 5264.805664,1156.114258 
	C5266.114746,1155.127930 5266.599121,1154.460449 5267.166992,1154.379395 
	C5282.864258,1152.141113 5289.747070,1144.805786 5289.917480,1127.120239 
	C5290.206543,1097.156982 5290.259277,1067.191040 5290.289551,1037.225952 
	C5290.343262,984.947632 5290.322754,932.669189 5290.275391,880.390808 
	C5290.270996,875.739380 5290.253418,871.024841 5289.539062,866.449402 
	C5287.622070,854.176025 5281.291016,849.313049 5268.906738,850.159729 
	C5266.651367,850.313904 5264.416016,850.754761 5261.277832,851.186035 
	C5261.707031,845.569397 5262.102051,840.404968 5262.517578,834.963562 
	C5286.047852,830.220398 5309.344727,825.524292 5332.805176,820.795227 
	C5335.375488,823.604126 5336.500977,826.804016 5334.411133,831.427002 
z"/>
<path fill="#FAFBFB" opacity="1.000000" stroke="none" 
	d="
M5156.405273,962.995483 
	C5155.218262,976.718018 5154.081543,989.573547 5152.945312,1002.429077 
	C5153.607422,1002.713562 5154.269531,1002.998108 5154.932129,1003.282654 
	C5156.470215,1001.530579 5158.163086,999.890259 5159.522461,998.008789 
	C5171.386719,981.588806 5185.777344,968.004272 5203.872070,958.645996 
	C5214.659180,953.066833 5225.859863,952.128113 5238.088867,956.158569 
	C5235.442383,979.149353 5232.839355,1001.757812 5230.113770,1025.433716 
	C5224.491699,1025.775024 5218.742676,1026.124146 5212.809082,1026.484375 
	C5211.958008,1018.910767 5211.669434,1011.974792 5210.304688,1005.257507 
	C5208.427246,996.022705 5204.677246,993.923767 5195.445312,995.167847 
	C5186.068848,996.431335 5178.825195,1001.722351 5171.970703,1007.538574 
	C5168.197266,1010.740112 5165.095215,1014.740479 5161.743164,1018.428467 
	C5157.601562,1022.985718 5155.655273,1027.983643 5155.478516,1034.531006 
	C5154.715332,1062.770752 5153.081543,1090.985840 5152.048340,1119.220215 
	C5151.832520,1125.125366 5152.238281,1131.189941 5153.387207,1136.976685 
	C5155.220703,1146.207520 5159.074219,1149.440674 5168.334473,1149.983276 
	C5175.624023,1150.410522 5182.958008,1150.050293 5190.272461,1150.085815 
	C5191.896973,1150.093628 5193.520508,1150.294434 5195.959473,1150.462646 
	C5194.466309,1157.913696 5193.065918,1164.904419 5191.535156,1172.543945 
	C5158.951172,1172.543945 5126.812012,1172.543945 5093.587891,1172.543945 
	C5094.298828,1166.586060 5094.988281,1160.808594 5095.692383,1154.909546 
	C5098.543945,1154.119507 5101.038086,1153.400269 5103.546875,1152.738770 
	C5111.945312,1150.523926 5116.405762,1144.700928 5117.637207,1136.485352 
	C5118.668945,1129.605347 5119.517578,1122.623413 5119.557617,1115.681641 
	C5119.751465,1082.050903 5119.711426,1048.418213 5119.579102,1014.786926 
	C5119.557129,1009.177124 5119.032227,1003.510498 5118.110352,997.974976 
	C5116.000977,985.319153 5109.111328,980.826965 5096.058594,983.043518 
	C5094.483398,983.310974 5092.857422,983.278198 5090.436523,983.438843 
	C5090.436523,977.504089 5090.436523,972.026001 5090.436523,966.033813 
	C5102.184082,963.388794 5113.787109,960.782959 5125.387207,958.161987 
	C5132.832520,956.479614 5140.288574,954.843750 5147.710449,953.062561 
	C5157.625977,950.682800 5158.578613,951.630310 5156.405273,962.995483 
z"/>
<path fill="#FAFBFB" opacity="1.000000" stroke="none" 
	d="
M3525.254883,924.939575 
	C3524.125244,936.524475 3522.903809,947.323608 3521.659424,958.327759 
	C3545.705566,958.327759 3568.493652,958.327759 3592.626465,958.327759 
	C3591.369385,966.618958 3590.111084,974.918518 3588.793457,983.607971 
	C3565.597412,983.607971 3543.128906,983.607971 3519.937012,983.607971 
	C3519.200928,998.258789 3518.221924,1012.449524 3517.833496,1026.656372 
	C3517.150635,1051.618042 3516.553955,1076.589111 3516.523438,1101.557129 
	C3516.514160,1109.091675 3518.017822,1116.735840 3519.675293,1124.140137 
	C3522.316162,1135.935547 3530.728760,1141.772095 3542.147705,1143.935303 
	C3552.866943,1145.966064 3563.304932,1144.797241 3573.515137,1141.197754 
	C3577.258301,1139.878296 3580.926758,1138.347534 3585.458008,1136.592285 
	C3587.136475,1140.578491 3588.765137,1144.446289 3590.556152,1148.699585 
	C3577.777344,1158.423218 3565.196289,1167.633179 3551.124268,1174.508911 
	C3547.677002,1176.193481 3543.453857,1177.361328 3539.693848,1177.118408 
	C3531.116943,1176.564087 3522.422852,1175.729004 3514.108398,1173.668701 
	C3498.764404,1169.866943 3489.531494,1159.313232 3486.378662,1144.065674 
	C3484.642578,1135.670898 3483.823486,1126.951050 3483.760498,1118.369141 
	C3483.487061,1081.045288 3483.644287,1043.718262 3483.641846,1006.392395 
	C3483.641846,1003.726440 3483.865234,1001.032349 3483.563965,998.399475 
	C3482.482178,988.947144 3478.296875,984.173889 3468.958008,981.832886 
	C3464.799316,980.790405 3460.531494,980.182495 3455.296143,979.183289 
	C3455.621094,975.319580 3455.447754,971.321838 3456.441895,967.639465 
	C3457.128418,965.097290 3458.906250,962.047424 3461.090088,960.836853 
	C3481.026611,949.785645 3498.803955,935.910767 3516.005615,919.435791 
	C3518.968750,920.962341 3522.065918,922.558044 3525.254883,924.939575 
z"/>
<path fill="#FAFBFB" opacity="1.000000" stroke="none" 
	d="
M5414.289551,1008.249634 
	C5399.256348,1022.857849 5384.754883,1036.999756 5369.759277,1051.623657 
	C5373.157715,1056.103760 5376.265625,1060.348511 5379.524902,1064.474121 
	C5396.846191,1086.395264 5413.924316,1108.518066 5431.673828,1130.087402 
	C5440.174805,1140.417603 5450.435547,1149.048706 5463.952637,1152.486450 
	C5468.075684,1153.535034 5472.312988,1154.135986 5477.730957,1155.179565 
	C5476.927246,1160.206177 5476.129395,1165.197144 5475.233398,1170.802246 
	C5464.533203,1173.248779 5454.289062,1176.146362 5443.849121,1177.830322 
	C5432.146973,1179.717896 5422.074219,1174.778687 5413.981934,1166.882935 
	C5406.875488,1159.948975 5400.396484,1152.209473 5394.575195,1144.150391 
	C5375.480469,1117.717041 5356.780273,1090.998047 5337.998535,1064.339600 
	C5332.500488,1056.535645 5332.941895,1054.181396 5340.164062,1047.575317 
	C5357.607910,1031.619019 5375.039062,1015.648743 5392.421875,999.626160 
	C5395.355469,996.921875 5398.306641,994.151062 5400.759766,991.026184 
	C5407.064453,982.993713 5404.770020,976.572021 5394.708984,974.316284 
	C5390.858887,973.453064 5386.775391,973.651855 5382.805664,973.287109 
	C5381.216309,973.141113 5379.646484,972.780762 5376.771973,972.302246 
	C5378.230469,966.833984 5379.539551,961.924988 5380.783691,957.259216 
	C5396.849609,957.259216 5412.116699,957.490356 5427.373535,957.194031 
	C5442.600586,956.898254 5457.817383,956.073975 5474.073730,955.441040 
	C5473.097168,960.183777 5472.605469,964.402161 5471.256836,968.325806 
	C5470.607422,970.214539 5468.628906,972.325562 5466.764648,973.013123 
	C5446.628906,980.438049 5430.785156,994.184570 5414.289551,1008.249634 
z"/>
<path fill="#C3C4C4" opacity="1.000000" stroke="none" 
	d="
M918.235962,822.243530 
	C911.242249,849.906372 903.898926,877.487488 897.404663,905.267090 
	C894.234070,918.829529 892.645569,932.761780 889.561768,946.996338 
	C887.882446,946.989136 886.982239,946.512207 886.082092,946.035278 
	C888.811279,930.051086 890.576050,913.826477 894.488159,898.137268 
	C900.894775,872.443726 908.697571,847.098328 916.538269,821.167236 
	C917.500183,821.248840 917.857178,821.753906 918.235962,822.243530 
z"/>
<path fill="#C3C4C4" opacity="1.000000" stroke="none" 
	d="
M2298.072021,1156.787354 
	C2298.525879,1155.183228 2299.071533,1154.291260 2299.749512,1152.841919 
	C2310.169678,1167.322998 2315.349365,1184.037842 2315.825195,1202.191528 
	C2316.104248,1202.169067 2315.838379,1202.203125 2315.835938,1202.188843 
	C2312.888672,1186.127075 2306.957031,1171.248047 2298.072021,1156.787354 
z"/>
<path fill="#868787" opacity="1.000000" stroke="none" 
	d="
M918.732300,821.731689 
	C917.857178,821.753906 917.500183,821.248840 916.775879,820.477051 
	C924.607544,799.717834 932.828308,779.210022 941.559570,758.776245 
	C942.207153,759.192810 942.344238,759.535339 942.481323,759.877869 
	C934.730408,780.325195 926.979492,800.772461 918.732300,821.731689 
z"/>
<path fill="#C3C4C4" opacity="1.000000" stroke="none" 
	d="
M1237.506836,882.511719 
	C1238.321777,883.144531 1238.627686,884.230408 1239.406738,885.633179 
	C1236.451904,890.989929 1233.024048,896.029785 1229.596313,901.069641 
	C1229.449341,900.991211 1229.302490,900.912720 1229.155640,900.834290 
	C1231.769653,894.877747 1234.383789,888.921265 1237.506836,882.511719 
z"/>
<path fill="#FDFDFD" opacity="1.000000" stroke="none" 
	d="
M882.323364,974.051270 
	C882.652344,971.130615 882.981323,968.209900 884.107727,964.666992 
	C885.822815,964.683411 886.740479,965.322021 887.658203,965.960693 
	C887.216003,970.783203 886.773865,975.605713 885.475708,981.368347 
	C883.676147,982.233093 882.732727,982.157715 881.789185,982.082397 
	C881.779602,981.165894 881.769958,980.249390 882.295959,978.357544 
	C882.662170,976.271912 882.492737,975.161560 882.323364,974.051270 
z"/>
<path fill="#C3C4C4" opacity="1.000000" stroke="none" 
	d="
M887.108521,1038.360596 
	C886.903442,1039.298340 885.774109,1040.198120 884.332336,1041.346924 
	C881.004211,1035.617432 882.324158,1030.389771 883.526794,1024.603516 
	C884.720398,1028.775879 885.452393,1033.549194 887.108521,1038.360596 
z"/>
<path fill="#FDFDFD" opacity="1.000000" stroke="none" 
	d="
M880.288269,996.046570 
	C880.485779,993.031555 880.683228,990.016602 881.730469,986.488220 
	C883.625366,986.635193 884.670471,987.295593 885.715576,987.955933 
	C885.550110,991.648560 885.384705,995.341125 884.369507,999.517700 
	C882.442627,998.683289 881.365479,997.364929 880.288269,996.046570 
z"/>
<path fill="#050404" opacity="1.000000" stroke="none" 
	d="
M942.959351,759.430176 
	C942.344238,759.535339 942.207153,759.192810 942.070740,758.295654 
	C944.246277,752.672974 946.421204,747.604980 949.266479,742.233032 
	C949.936768,741.929077 950.163086,742.095337 950.163086,742.095337 
	C947.921143,747.724426 945.679260,753.353455 942.959351,759.430176 
z"/>
<path fill="#FDFDFD" opacity="1.000000" stroke="none" 
	d="
M885.891357,946.768738 
	C886.982239,946.512207 887.882446,946.989136 889.245178,947.701538 
	C889.300903,951.482910 888.893982,955.028870 887.749023,959.260132 
	C886.115662,959.313416 885.220398,958.681335 884.325134,958.049255 
	C884.783569,954.533569 885.242065,951.017883 885.891357,946.768738 
z"/>
<path fill="#C3C4C4" opacity="1.000000" stroke="none" 
	d="
M880.014709,996.561523 
	C881.365479,997.364929 882.442627,998.683289 884.119751,1000.262085 
	C884.910889,1001.240173 885.102051,1001.957825 884.976196,1003.158447 
	C883.610291,1003.645386 882.561340,1003.649414 880.743225,1003.828735 
	C879.896423,1001.694885 879.818787,999.385742 880.014709,996.561523 
z"/>
<path fill="#C3C4C4" opacity="1.000000" stroke="none" 
	d="
M884.043823,958.467529 
	C885.220398,958.681335 886.115662,959.313416 887.559814,959.997742 
	C888.145691,961.737244 888.182617,963.424500 887.938843,965.536194 
	C886.740479,965.322021 885.822815,964.683411 884.347534,963.972107 
	C883.780884,962.228271 883.771729,960.557068 884.043823,958.467529 
z"/>
<path fill="#C3C4C4" opacity="1.000000" stroke="none" 
	d="
M885.985840,987.515259 
	C884.670471,987.295593 883.625366,986.635193 881.989502,985.780945 
	C881.307312,984.776672 881.215881,983.966370 881.456787,982.619202 
	C882.732727,982.157715 883.676147,982.233093 885.317993,982.152954 
	C886.096191,983.689880 886.176147,985.382202 885.985840,987.515259 
z"/>
<path fill="#C3C4C4" opacity="1.000000" stroke="none" 
	d="
M882.053589,974.381592 
	C882.492737,975.161560 882.662170,976.271912 882.444458,977.684692 
	C881.966125,976.895386 881.874939,975.803650 882.053589,974.381592 
z"/>
<path fill="#C3C4C4" opacity="1.000000" stroke="none" 
	d="
M877.756165,1044.720093 
	C877.275452,1045.592163 876.378601,1046.822266 874.860718,1048.039673 
	C875.273193,1047.043945 876.306641,1046.061035 877.756165,1044.720093 
z"/>
<path fill="#050404" opacity="1.000000" stroke="none" 
	d="
M952.161255,738.096497 
	C951.804993,739.192688 951.448730,740.288940 950.627808,741.740234 
	C950.163086,742.095337 949.936768,741.929077 949.829346,741.835693 
	C950.105164,740.668030 950.488464,739.593628 951.407349,738.226807 
	C951.942810,737.934448 952.161316,738.096497 952.161255,738.096497 
z"/>
<path fill="#050404" opacity="1.000000" stroke="none" 
	d="
M954.150208,734.093994 
	C953.796204,735.190552 953.442261,736.287109 952.624756,737.740112 
	C952.161316,738.096497 951.942810,737.934448 951.839050,737.843384 
	C952.122986,736.680237 952.510742,735.608154 953.428101,734.242188 
	C953.957703,733.948425 954.150208,734.093994 954.150208,734.093994 
z"/>
<path fill="#050404" opacity="1.000000" stroke="none" 
	d="
M953.868042,733.867798 
	C954.171448,732.708984 954.564636,731.630859 955.483154,730.270508 
	C956.008545,729.988403 956.151794,730.112000 956.151855,730.112000 
	C955.792236,731.202209 955.432617,732.292358 954.611572,733.738281 
	C954.150208,734.093994 953.957703,733.948425 953.868042,733.867798 
z"/>
<path fill="#C3C4C4" opacity="1.000000" stroke="none" 
	d="
M2296.426758,1154.406250 
	C2296.935547,1154.285156 2297.453857,1154.652588 2297.960938,1155.521484 
	C2297.244629,1155.915527 2296.740234,1155.539307 2296.426758,1154.406250 
z"/>
<path fill="#050404" opacity="1.000000" stroke="none" 
	d="
M955.946655,729.916870 
	C956.147400,729.832764 956.409973,729.820190 956.412231,729.959778 
	C956.151794,730.112000 956.008545,729.988403 955.946655,729.916870 
z"/>
<path fill="#010101" opacity="1.000000" stroke="none" 
	d="
M1051.129517,1485.507568 
	C1053.846802,1485.825073 1057.036255,1486.436035 1059.975220,1487.651978 
	C1109.511230,1508.145874 1159.875732,1526.164062 1212.206055,1538.197998 
	C1268.558960,1551.157104 1325.704956,1557.471680 1383.502686,1558.551880 
	C1443.864380,1559.680054 1504.101562,1557.252319 1564.239868,1552.479736 
	C1600.752441,1549.582153 1637.311035,1546.626709 1673.611816,1541.883057 
	C1707.236206,1537.489014 1740.561157,1530.771118 1773.976440,1524.842773 
	C1779.150269,1523.924927 1783.130981,1523.876709 1787.727539,1527.574463 
	C1797.313232,1535.285889 1809.159912,1538.588135 1821.154541,1539.521240 
	C1870.658813,1543.372559 1914.563599,1529.262939 1952.199951,1496.696167 
	C1961.339233,1488.788208 1968.476929,1479.159790 1972.684326,1467.568604 
	C1978.568115,1451.357910 1974.090210,1436.120239 1960.208984,1426.026123 
	C1950.810547,1419.191650 1940.031250,1415.451538 1928.712769,1414.336060 
	C1879.175293,1409.453613 1835.225342,1423.390991 1797.109131,1455.238403 
	C1785.172119,1465.212280 1776.122314,1477.523804 1772.573486,1494.039185 
	C1762.714722,1495.240356 1752.902222,1496.643921 1743.046387,1497.601685 
	C1692.621094,1502.502197 1642.102173,1506.038940 1591.418823,1506.189819 
	C1537.776001,1506.349731 1484.114624,1506.862305 1430.492310,1505.742798 
	C1359.412231,1504.258911 1288.982178,1496.748535 1220.035034,1478.243652 
	C1152.626709,1460.151611 1088.460205,1433.710693 1025.884644,1403.187622 
	C1010.345764,1395.608032 995.302795,1387.017212 979.916992,1379.114868 
	C974.956116,1376.567017 971.601746,1372.969360 968.938904,1368.095337 
	C937.307739,1310.197266 913.856201,1249.199463 900.215088,1184.630249 
	C895.336609,1161.538330 892.368042,1138.046631 888.311646,1114.775024 
	C887.169189,1108.220703 889.051453,1103.819214 894.291077,1099.423828 
	C932.859619,1067.068848 976.005981,1042.212524 1021.429565,1021.064270 
	C1081.619507,993.041016 1144.353638,972.596619 1209.629883,958.199829 
	C1183.349854,1100.687622 1218.564575,1223.716064 1326.809082,1321.536011 
	C1405.398804,1392.557007 1499.797485,1422.277710 1605.124390,1413.506714 
	C1812.646606,1396.225464 1976.844971,1205.241821 1938.829956,976.088196 
	C1941.895020,976.750000 1944.678955,977.215332 1947.387695,977.955811 
	C2020.292358,997.885498 2092.082275,1021.082642 2160.227783,1054.140991 
	C2183.520508,1065.440552 2205.660889,1079.124634 2228.251709,1091.854004 
	C2232.271240,1094.118896 2235.917236,1097.046509 2240.229248,1100.006958 
	C2238.668701,1114.056885 2237.448730,1127.958252 2235.536621,1141.763794 
	C2226.482178,1207.135864 2208.149170,1269.805298 2180.524414,1329.770752 
	C2139.031738,1419.840332 2080.347900,1496.894287 2004.902710,1561.100464 
	C1915.871704,1636.868286 1813.710449,1686.000488 1699.267822,1709.310059 
	C1643.529053,1720.662720 1587.003540,1724.896729 1530.244141,1721.305664 
	C1355.907959,1710.275391 1206.510254,1643.167969 1082.558716,1519.923218 
	C1071.710205,1509.136475 1061.820190,1497.385620 1051.129517,1485.507568 
z"/>
<path fill="#040404" opacity="1.000000" stroke="none" 
	d="
M866.160217,1293.835693 
	C854.726135,1281.131104 845.202576,1267.973633 838.095215,1253.147339 
	C825.439392,1226.746460 824.560669,1200.056152 836.081848,1173.056641 
	C845.783142,1150.321777 860.934204,1131.499023 878.370911,1114.336060 
	C878.706299,1114.005859 879.575684,1114.218262 881.071106,1114.119873 
	C888.894226,1200.115723 912.627625,1281.791138 949.950317,1359.940308 
	C919.078552,1341.684692 890.824097,1320.610229 866.160217,1293.835693 
z"/>
<path fill="#010101" opacity="1.000000" stroke="none" 
	d="
M2436.748047,1058.889404 
	C2433.365967,1041.710205 2431.579102,1025.208374 2432.387939,1008.538757 
	C2433.816650,979.097168 2440.892334,951.569885 2459.396729,927.710876 
	C2492.197510,885.418091 2549.157959,885.489929 2583.238525,907.817139 
	C2605.319092,922.282715 2619.900879,942.313660 2628.287842,966.970398 
	C2642.091309,1007.551025 2643.686279,1048.430542 2628.066162,1088.797363 
	C2616.121582,1119.664917 2594.617676,1141.467773 2561.805664,1149.853760 
	C2517.456299,1161.188232 2477.294678,1141.837646 2454.474121,1104.007690 
	C2446.166992,1090.236328 2440.769531,1075.281006 2436.748047,1058.889404 
z"/>
<path fill="#020202" opacity="1.000000" stroke="none" 
	d="
M4774.007324,1008.099548 
	C4791.708984,1031.832153 4795.943359,1058.090820 4792.655273,1086.072876 
	C4792.076660,1091.000610 4791.252441,1095.942993 4790.014160,1100.742554 
	C4782.112305,1131.371582 4760.171875,1149.804077 4728.659668,1151.107300 
	C4711.653320,1151.810791 4695.046387,1148.362671 4679.064941,1142.111694 
	C4679.064941,1125.190918 4678.899414,1108.656006 4679.114258,1092.126099 
	C4679.308594,1077.166138 4679.829590,1062.208252 4680.372070,1047.255493 
	C4680.770020,1036.301147 4681.627441,1025.361084 4681.890625,1014.405212 
	C4681.999023,1009.901306 4683.698730,1006.854309 4687.460449,1004.711548 
	C4696.093750,999.792908 4704.424316,994.217224 4713.418457,990.084717 
	C4731.169922,981.928101 4747.796875,985.321045 4762.843262,997.160889 
	C4766.728516,1000.218018 4769.991211,1004.065369 4774.007324,1008.099548 
z"/>
<path fill="#050404" opacity="1.000000" stroke="none" 
	d="
M3064.539551,1080.380493 
	C3073.846191,1077.644043 3082.385742,1075.153809 3091.232178,1072.574219 
	C3090.692627,1087.744141 3090.279053,1102.315186 3089.535645,1116.869263 
	C3089.432861,1118.886108 3088.147705,1121.282959 3086.654297,1122.717041 
	C3077.425537,1131.577637 3066.897217,1138.530518 3054.420166,1141.799316 
	C3032.906738,1147.435669 3013.386719,1132.121338 3014.049316,1110.434692 
	C3014.343018,1100.822388 3018.352783,1094.998535 3027.675049,1091.896240 
	C3039.633545,1087.916626 3051.733643,1084.363525 3064.539551,1080.380493 
z"/>
<path fill="#050404" opacity="1.000000" stroke="none" 
	d="
M4978.332520,1113.518677 
	C4977.278320,1117.358643 4977.069824,1121.232788 4975.025391,1123.146851 
	C4965.478516,1132.086792 4954.706055,1139.254639 4941.645508,1142.108643 
	C4921.576172,1146.494019 4904.110840,1133.210938 4902.859863,1112.725220 
	C4902.229980,1102.412598 4906.541504,1095.082031 4916.293457,1091.955688 
	C4937.128906,1085.276367 4958.116699,1079.072632 4980.333496,1072.279175 
	C4979.634766,1086.382080 4978.983398,1099.515869 4978.332520,1113.518677 
z"/>
</svg>